<?xml version="1.0" encoding="utf-8"?>
<!-- Generator: Adobe Illustrator 16.0.4, SVG Export Plug-In . SVG Version: 6.00 Build 0)  -->
<!DOCTYPE svg PUBLIC "-//W3C//DTD SVG 1.1//EN" "http://www.w3.org/Graphics/SVG/1.1/DTD/svg11.dtd">
<svg version="1.1" id="Layer_1" xmlns="http://www.w3.org/2000/svg" xmlns:xlink="http://www.w3.org/1999/xlink" x="0px" y="0px"
	 width="310.333px" height="75px" viewBox="0 0 310.333 75" enable-background="new 0 0 310.333 75" xml:space="preserve">
<g>
	<path fill="#CD2027" stroke="#CD2027" stroke-width="1.5038" stroke-miterlimit="10" d="M150.145,37.213
		c-0.574,1.336-1.369,2.516-2.385,3.538c-1.017,1.022-2.198,1.823-3.543,2.399c-1.345,0.577-2.777,0.866-4.293,0.866h-10.241v-8.213
		h10.241c0.824,0,1.517-0.288,2.078-0.866c0.561-0.577,0.841-1.262,0.841-2.053c0-0.824-0.281-1.517-0.844-2.078
		c-0.562-0.56-1.257-0.841-2.084-0.841h-0.497c-1.886,0-3.624-0.297-5.211-0.891c-1.588-0.594-2.945-1.467-4.069-2.622
		c-0.96-0.957-1.696-2.036-2.209-3.241c-0.513-1.204-0.769-2.499-0.769-3.884c0-1.352,0.237-2.688,0.713-4.007
		c0.476-1.319,1.246-2.506,2.312-3.562c1.065-1.055,2.452-1.912,4.16-2.572c1.708-0.66,3.815-0.99,6.322-0.99
		c0.792,0,1.64,0.033,2.548,0.099c0.907,0.066,1.797,0.148,2.671,0.247c0.874,0.099,1.69,0.215,2.449,0.347
		c0.758,0.132,1.401,0.28,1.93,0.445L147.79,17.2c-0.264-0.099-0.651-0.189-1.163-0.272c-0.512-0.082-1.097-0.165-1.756-0.248
		c-0.66-0.082-1.36-0.148-2.103-0.198s-1.443-0.074-2.103-0.074c-0.562,0-1.146,0.025-1.756,0.074
		c-0.611,0.049-1.188,0.166-1.732,0.346c-0.544,0.182-0.989,0.47-1.335,0.866c-0.347,0.396-0.52,0.94-0.52,1.633
		c0,0.495,0.14,0.891,0.421,1.188c0.281,0.297,0.628,0.537,1.042,0.717c0.414,0.182,0.852,0.305,1.315,0.371
		c0.463,0.066,0.877,0.099,1.241,0.099h0.497c1.522,0,2.961,0.289,4.318,0.866c1.356,0.577,2.547,1.377,3.573,2.399
		c1.026,1.023,1.828,2.21,2.407,3.562c0.579,1.353,0.869,2.804,0.869,4.354C151.006,34.435,150.719,35.877,150.145,37.213z"/>
	<path fill="#CD2027" stroke="#CD2027" stroke-width="1.5038" stroke-miterlimit="10" d="M179.8,44.016l-1.534-3.265h-13.556
		l-1.534,3.265h-9.103l17.415-37.254l17.366,37.254H179.8z M171.489,26.205l-3.216,6.828h6.382L171.489,26.205z"/>
	<path fill="#CD2027" stroke="#CD2027" stroke-width="1.5038" stroke-miterlimit="10" d="M201.42,45.995L184.203,9.086h9.054
		l8.164,18.355l8.114-18.355h9.054L201.42,45.995z"/>
	<path fill="#CD2027" stroke="#CD2027" stroke-width="1.5038" stroke-miterlimit="10" d="M239.368,44.016l-1.534-3.265h-13.556
		l-1.534,3.265h-9.103l17.415-37.254l17.366,37.254H239.368z M231.056,26.205l-3.216,6.828h6.382L231.056,26.205z"/>
	<path fill="#CD2027" stroke="#CD2027" stroke-width="1.5038" stroke-miterlimit="10" d="M277.171,43.006
		c-0.823,0.412-1.646,0.766-2.47,1.062c-0.823,0.295-1.688,0.517-2.593,0.667c-0.906,0.147-1.902,0.222-2.988,0.222
		c-2.536,0-4.924-0.479-7.163-1.435c-2.239-0.957-4.19-2.268-5.853-3.934c-1.663-1.665-2.972-3.619-3.926-5.862
		c-0.956-2.243-1.433-4.634-1.433-7.174c0-2.506,0.483-4.881,1.45-7.124c0.967-2.243,2.278-4.188,3.934-5.838
		c1.656-1.649,3.596-2.96,5.823-3.933c2.226-0.973,4.608-1.459,7.148-1.459c1.682,0,3.339,0.231,4.972,0.693
		c1.632,0.462,3.174,1.138,4.625,2.028l-4.304,6.976c-0.792-0.462-1.632-0.824-2.523-1.088c-0.891-0.264-1.814-0.396-2.771-0.396
		c-1.419,0-2.746,0.264-3.983,0.792c-1.237,0.528-2.318,1.254-3.241,2.177c-0.924,0.924-1.649,2.004-2.177,3.241
		c-0.528,1.237-0.792,2.548-0.792,3.933c0,1.419,0.264,2.746,0.794,3.983c0.53,1.237,1.258,2.317,2.186,3.241
		c0.927,0.924,2.011,1.649,3.253,2.177c1.242,0.528,2.574,0.792,3.998,0.792c0.431,0,0.853-0.032,1.267-0.099
		c0.414-0.066,0.836-0.148,1.266-0.248v-4.304h-3.76v-7.718h11.923v17.274C278.882,42.143,277.993,42.595,277.171,43.006z"/>
	<path fill="#CD2027" stroke="#CD2027" stroke-width="1.5038" stroke-miterlimit="10" d="M287.605,44.016V17.299h-3.71V9.086h23.6
		v8.213h-11.726v5.689h11.726v7.916h-11.726v4.898h11.726v8.213H287.605z"/>
</g>
<g>
	<path fill="#369946" stroke="#369946" stroke-width="1.0025" stroke-miterlimit="10" d="M175.511,51.898
		c-0.536,0.25-2.716-0.393-2.68-2.144c0.036-2.323,3.788-9.077,3.895-9.685c0.179-1.144,2.323-0.857,1.394,0.894
		c-4.86,9.184-2.251,4.288-3.966,7.826c-1.18,2.395,0.214,2.395,1.144,2.18c1.787-0.429,3.073-1.322,4.359-2.537
		c0.822-0.822,0.75-0.107,0.215,0.429C178.727,50.004,177.583,50.969,175.511,51.898z M179.478,37.354
		c-0.536,0.5-0.965,0.715-1.322,0.643c-0.536-0.107-0.787-0.321-0.787-0.607c0-0.321,0.25-0.75,0.822-1.322
		c0.536-0.572,0.965-0.893,1.322-0.965c0.5-0.107,1.108,0.429,0.965,0.858C180.406,36.354,180.085,36.818,179.478,37.354z"/>
	<path fill="#369946" stroke="#369946" stroke-width="1.0025" stroke-miterlimit="10" d="M177.689,50.648
		c-0.107-0.107-0.071-0.286,0.071-0.572c0.572-1.215,1.501-2.788,2.788-4.753c1.251-1.894,2.358-3.395,3.288-4.539
		c0.143-0.214,0.393-0.393,0.894-0.464c0.143-0.036,0.214-0.036,0.25,0c0,0.071-0.036,0.179-0.107,0.25
		c-1.787,2.073-3.109,4.181-4.038,6.29c-0.107,0.143-0.143,0.322-0.143,0.464c0,0.286,0.107,0.393,0.286,0.393
		c0.107,0,0.286-0.071,0.429-0.25c1.322-1.287,2.788-2.537,4.324-3.788c1.823-1.465,3.038-2.287,3.609-2.501
		c0.286-0.25,0.572-0.464,0.894-0.572c0.536-0.25,0.965-0.286,1.25-0.143c0.322,0.107,0.322,0.393-0.036,0.822
		c-1.715,2.18-3.252,4.717-4.574,7.504c-1.287,2.788-1.965,5.039-2.108,6.718c-0.071,1.108,0.143,1.966,0.679,2.538
		c0.5,0.536,1.144,0.786,1.965,0.786c0.357,0,0.679-0.036,1.036-0.143c1.358-0.393,3.074-1.465,5.11-3.181
		c2.251-1.93,3.395-3.466,3.395-4.646c0-1-1.072-0.644-1.072-0.894c0-0.286,0.536-0.5,0.858-0.5c0.393,0,0.607,0.286,0.607,0.822
		c0,0.25-0.071,0.607-0.214,1.036c-0.429,1.394-1.537,2.895-3.216,4.574c-2.323,2.287-4.789,3.538-7.433,3.824
		c-0.965,0.107-1.751-0.179-2.358-0.786c-0.679-0.75-0.929-1.858-0.822-3.359c0.143-1.68,0.929-3.86,2.251-6.468
		c1.108-2.18,2.287-4.217,3.681-6.111c0.071-0.107,0.107-0.25,0.107-0.357c0-0.393-0.214-0.572-0.643-0.572
		c-0.214,0-0.393,0.071-0.572,0.179c-2.68,1.894-5.396,4.502-8.184,7.754c-0.25,0.322-0.858,0.572-1.823,0.787
		C177.868,50.827,177.725,50.791,177.689,50.648z"/>
	<path fill="#369946" stroke="#369946" stroke-width="1.0025" stroke-miterlimit="10" d="M188.335,69.374
		c-1.251-1.394-1.465-3.145-1.465-5.182c0-3.395,1.394-8.219,4.11-14.438c2.394-5.503,4.86-9.935,7.29-13.437
		c0.322-0.357,0.429-0.679,0.429-1.072c0-0.429-0.179-0.75-0.643-1c-0.894-0.357-1.179-0.75-1-1.108
		c0.143-0.286,1.465-0.429,3.716-0.429c0.179,0-0.107-0.179,0-0.322c2.251-3.538,5.432-7.076,8.684-10.864
		c0.179-0.214,0.857-0.5,2.001-0.929c1.144-0.393,1.465-0.607,2.037-0.607c0.286,0,0.393,0.143,0.393,0.322
		c0,0.143-0.107,0.178-0.357,0.25c-2.251,0.464-5.932,4.217-11.114,11.328c-0.357,0.5-0.286,0.822,0.25,0.822h5.182
		c2.788,0,4.324,0.036,4.717,0.036c0.25,0,0.357,0.036,0.429,0.107c0,0.072-0.286,0.679-0.714,0.715
		c-2.716,0.107-6.218,0.357-10.649,0.572c-0.393,0.071-0.715,0.286-0.894,0.572c-2.501,3.717-4.753,7.219-6.861,11.507
		c-3.323,6.754-5.217,12.364-5.61,16.76c-0.036,0.608-0.036,1.144-0.036,1.715c0,4.146,1.465,6.218,4.396,6.218
		c0.822,0,1.715-0.107,2.788-0.464c2.966-0.929,5.896-3.002,8.97-6.254s4.789-6.146,5.182-8.684c0-2.215-0.822-3.216-2.394-2.966
		c-0.715,0.107-1.251,0.572-1.501,0.572c-0.214,0-0.322-0.143-0.286-0.322c0.214-0.393,0.536-0.607,1.787-1.108
		c0.143-0.036,0.286-0.036,0.429-0.036c0.786,0,1.465,0.464,2.18,1.537c0.679,1.037,1.072,1.894,1.001,2.43
		c-0.429,3.145-2.752,6.575-6.826,10.256c-4.11,3.716-7.719,5.646-10.899,5.646C191.159,71.518,189.586,70.731,188.335,69.374z"/>
	<path fill="#369946" stroke="#369946" stroke-width="1.0025" stroke-miterlimit="10" d="M210.168,43.357
		c-1.608,0.25-6.933,0.25-9.792,0.25c-1.072,1.429-2.537,3.574-2.68,5.825c-0.107,2.108,1.179,2.609,2.395,2.466
		c1.572-0.179,3.538-0.965,4.824-1.715c0.393-0.214,0.679-0.036,0.286,0.25c-1,0.714-3.038,1.93-4.789,2.251
		c-1.429,0.25-3.645-1.394-3.574-3.252c0.25-5.217,5.933-11.006,9.256-12.257c1.787-0.679,2.93,1.787,2.144,3.181
		c-0.75,1.322-2.751,2.287-5.11,2.645c2.608,0,5.503,0,7.04-0.179c1.001-0.107,2.145-0.75,2.716-1.251
		c0.214-0.322,0.5-0.179,0.25,0.143C212.67,42.214,211.491,43.179,210.168,43.357z M206.023,38.462
		c-1.751,1-3.645,2.787-5.253,4.539c2.501,0,5.468-1.251,6.611-2.966C208.382,38.498,207.453,37.676,206.023,38.462z"/>
	<path fill="#369946" stroke="#369946" stroke-width="1.0025" stroke-miterlimit="10" d="M206.307,52.113
		c-0.036-0.107-0.036-0.214,0.036-0.357c2.323-3.574,3.896-6.326,4.717-8.255c0.143-0.357,0.214-0.643,0.214-0.893
		c0-0.072-0.036-0.179-0.107-0.394c-0.036-0.107-0.036-0.178,0-0.25c0.286-0.107,1.179-0.607,2.68-1.501
		c0.036-0.071,0.107-0.071,0.143-0.071c0.143,0,0.25,0.071,0.286,0.179c0.071,0.107,0.071,0.286-0.036,0.393
		c-1.537,2.073-2.609,3.645-3.145,4.681c-0.071,0.143-0.107,0.25-0.107,0.357c0,0.107,0.107,0.143,0.393,0.036
		c0.179-0.072,0.357-0.179,0.429-0.286c0.894-1.072,2.108-2.251,3.609-3.466c1.537-1.251,2.716-2.037,3.574-2.395
		c0.75-0.036,1.286,0.036,1.644,0.214c0.036,0.036,0.036,0.036,0.036,0.072c0,0.322-0.75,1.108-1.037,0.929
		c-0.5-0.214-1.108-0.107-1.93,0.321c-3.502,1.93-6.647,5.146-9.434,9.72c0,0.036-0.072,0.143-0.286,0.25
		c-0.357,0.143-0.857,0.357-1.465,0.714C206.414,52.256,206.342,52.256,206.307,52.113z"/>
	<path fill="#369946" stroke="#369946" stroke-width="1.0025" stroke-miterlimit="10" d="M216.632,50.648
		c-0.107-0.107-0.071-0.286,0.071-0.572c0.572-1.215,1.501-2.788,2.788-4.753c1.251-1.894,2.358-3.395,3.288-4.539
		c0.143-0.214,0.393-0.393,0.894-0.464c0.143-0.036,0.214-0.036,0.25,0c0,0.071-0.036,0.179-0.107,0.25
		c-1.787,2.073-3.109,4.181-4.039,6.29c-0.107,0.143-0.143,0.322-0.143,0.464c0,0.286,0.107,0.393,0.286,0.393
		c0.107,0,0.286-0.071,0.429-0.25c1.322-1.287,2.787-2.537,4.324-3.788c1.823-1.465,3.038-2.287,3.609-2.501
		c0.286-0.25,0.572-0.464,0.894-0.572c0.536-0.25,0.965-0.286,1.25-0.143c0.322,0.107,0.322,0.393-0.036,0.822
		c-1.715,2.18-3.252,4.717-4.574,7.504c-1.287,2.788-1.965,5.039-2.108,6.718c-0.071,1.108,0.143,1.966,0.679,2.538
		c0.5,0.536,1.144,0.786,1.965,0.786c0.357,0,0.679-0.036,1.036-0.143c1.358-0.393,3.074-1.465,5.11-3.181
		c2.251-1.93,3.395-3.466,3.395-4.646c0-1-1.072-0.644-1.072-0.894c0-0.286,0.536-0.5,0.858-0.5c0.393,0,0.607,0.286,0.607,0.822
		c0,0.25-0.071,0.607-0.214,1.036c-0.429,1.394-1.537,2.895-3.216,4.574c-2.323,2.287-4.789,3.538-7.433,3.824
		c-0.965,0.107-1.751-0.179-2.358-0.786c-0.679-0.75-0.929-1.858-0.822-3.359c0.143-1.68,0.929-3.86,2.251-6.468
		c1.108-2.18,2.287-4.217,3.681-6.111c0.071-0.107,0.107-0.25,0.107-0.357c0-0.393-0.214-0.572-0.643-0.572
		c-0.214,0-0.393,0.071-0.572,0.179c-2.68,1.894-5.396,4.502-8.184,7.754c-0.25,0.322-0.858,0.572-1.823,0.787
		C216.811,50.827,216.667,50.791,216.632,50.648z"/>
	<path fill="#369946" stroke="#369946" stroke-width="1.0025" stroke-miterlimit="10" d="M243.574,43.357
		c-1.608,0.25-6.933,0.25-9.792,0.25c-1.072,1.429-2.537,3.574-2.68,5.825c-0.107,2.108,1.179,2.609,2.395,2.466
		c1.572-0.179,3.538-0.965,4.824-1.715c0.393-0.214,0.679-0.036,0.286,0.25c-1,0.714-3.038,1.93-4.789,2.251
		c-1.429,0.25-3.645-1.394-3.574-3.252c0.25-5.217,5.933-11.006,9.256-12.257c1.787-0.679,2.93,1.787,2.144,3.181
		c-0.75,1.322-2.751,2.287-5.11,2.645c2.608,0,5.503,0,7.04-0.179c1.001-0.107,2.145-0.75,2.716-1.251
		c0.214-0.322,0.5-0.179,0.25,0.143C246.076,42.214,244.896,43.179,243.574,43.357z M239.429,38.462
		c-1.751,1-3.645,2.787-5.253,4.539c2.501,0,5.468-1.251,6.611-2.966C241.787,38.498,240.858,37.676,239.429,38.462z"/>
	<path fill="#369946" stroke="#369946" stroke-width="1.0025" stroke-miterlimit="10" d="M238.711,69.374
		c-1.251-1.394-1.465-3.145-1.465-5.182c0-3.395,1.394-8.219,4.11-14.438c2.394-5.503,4.86-9.935,7.29-13.437
		c0.322-0.357,0.429-0.679,0.429-1.072c0-0.429-0.179-0.75-0.643-1c-0.894-0.357-1.179-0.75-1-1.108
		c0.143-0.286,1.465-0.429,3.716-0.429c0.179,0-0.107-0.179,0-0.322c2.251-3.538,5.432-7.076,8.684-10.864
		c0.179-0.214,0.857-0.5,2.001-0.929c1.144-0.393,1.465-0.607,2.037-0.607c0.286,0,0.393,0.143,0.393,0.322
		c0,0.143-0.107,0.178-0.357,0.25c-2.251,0.464-5.932,4.217-11.114,11.328c-0.357,0.5-0.286,0.822,0.25,0.822h5.182
		c2.788,0,4.324,0.036,4.717,0.036c0.25,0,0.357,0.036,0.429,0.107c0,0.072-0.286,0.679-0.714,0.715
		c-2.716,0.107-6.218,0.357-10.649,0.572c-0.393,0.071-0.715,0.286-0.894,0.572c-2.501,3.717-4.753,7.219-6.861,11.507
		c-3.323,6.754-5.217,12.364-5.61,16.76c-0.036,0.608-0.036,1.144-0.036,1.715c0,4.146,1.465,6.218,4.396,6.218
		c0.822,0,1.715-0.107,2.788-0.464c2.966-0.929,5.896-3.002,8.97-6.254s4.789-6.146,5.182-8.684c0-2.215-0.822-3.216-2.394-2.966
		c-0.715,0.107-1.251,0.572-1.501,0.572c-0.214,0-0.322-0.143-0.286-0.322c0.215-0.393,0.536-0.607,1.787-1.108
		c0.143-0.036,0.286-0.036,0.429-0.036c0.786,0,1.465,0.464,2.18,1.537c0.679,1.037,1.072,1.894,1.001,2.43
		c-0.429,3.145-2.752,6.575-6.826,10.256c-4.11,3.716-7.719,5.646-10.899,5.646C241.534,71.518,239.962,70.731,238.711,69.374z"/>
</g>
<g>
	<g>
		<g>
			<path fill="#BDCCD4" d="M116.35,39.904c-10.7-7.54-30.962-12.585-53.927-12.585c-22.965,0-43.026,5.087-53.729,12.626L0,39.848
				V24.96C0,11.081,28.57,0.38,62.757,0.38C96.938,0.38,125,11.025,125,24.904v14.944L116.35,39.904z"/>
		</g>
	</g>
	<g>
		<g>
			<polygon fill="#CD2027" points="36.559,39.5 88.958,39.5 62.899,22.47 			"/>
		</g>
		<g>
			<polygon fill="#CD2027" points="36.559,44.5 88.958,44.5 62.899,68.771 			"/>
		</g>
		<g>
			<polygon fill="#369946" points="83,35.327 83,46.958 120.809,40.846 			"/>
		</g>
		<g>
			<polygon fill="#369946" points="43,35.327 43,46.958 5.192,40.846 			"/>
		</g>
		<g>
			<g>
				<polygon fill="#34679A" points="41.183,40.957 60.89,47.07 24.838,62.049 				"/>
			</g>
			<g>
				<polygon fill="#34679A" points="41.183,40.957 60.89,35.438 29.827,25.677 				"/>
			</g>
		</g>
		<g>
			<g>
				<polygon fill="#34679A" points="84.617,40.957 64.907,47.07 100.959,62.049 				"/>
			</g>
			<g>
				<polygon fill="#34679A" points="84.617,40.957 64.907,35.438 95.971,25.677 				"/>
			</g>
		</g>
		<g>
			<ellipse fill="#FFCD34" cx="62.9" cy="41.388" rx="22.993" ry="7.926"/>
		</g>
	</g>
	<g>
		<g>
			<path fill="#BDCCD4" d="M84.958,47.831"/>
		</g>
		<g>
			<g>
				<path fill="#BDCCD4" d="M125,25.53c0,0,0-0.583,0-0.57c0,4.57-3.18,8.55-8.429,12.245c-7.044,4.958-18.222,8.698-31.527,10.781
					L62.92,59.587l24.742,12.966C109.549,68.668,125,59.95,125,49.634V25.53z"/>
			</g>
		</g>
		<g>
			<g>
				<path fill="#BDCCD4" d="M0,25.53c0,0,0-0.583,0-0.57c0,4.57,3.523,8.55,8.771,12.245c7.045,4.958,18.394,8.698,31.696,10.781
					l22.214,11.602L37.638,72.553C15.75,68.668,0,59.95,0,49.634V25.53z"/>
			</g>
		</g>
	</g>
</g>
</svg>
