<?xml version="1.0" encoding="utf-8"?>
<!-- Generator: Adobe Illustrator 16.0.4, SVG Export Plug-In . SVG Version: 6.00 Build 0)  -->
<!DOCTYPE svg PUBLIC "-//W3C//DTD SVG 1.1//EN" "http://www.w3.org/Graphics/SVG/1.1/DTD/svg11.dtd">
<svg version="1.1" xmlns="http://www.w3.org/2000/svg" xmlns:xlink="http://www.w3.org/1999/xlink" x="0px" y="0px"
	 width="290.909px" height="327.274px" viewBox="0 0 290.909 327.274" enable-background="new 0 0 290.909 327.274"
	 xml:space="preserve">
<g id="Layer_1" display="none">
	<g display="inline">
		<path fill="#FFFFFF" d="M381.09,179.271c-1.059,2.028-1.298,5.32-1.898,15.422c-0.656,11.019-1.646,27.67-4.651,39.397
			c-0.996,3.891-11.24,11.565-20.63,16.665c-0.447-1.216-0.991-2.427-1.658-3.628c-7.691-13.865-28.751-23.335-43.598-23.481
			c-13.953-0.136-23.021,3.721-26.95,11.468c-7.496,14.783,8.277,36.593,10.1,39.032l8.011-5.984
			c-3.653-4.904-13.183-20.672-9.189-28.53c2.575-5.067,11.171-6.052,17.931-5.985c11.763,0.115,29.208,7.979,34.951,18.332
			c2.445,4.409,2.343,8.665-0.312,13.014c-5.676,9.297-18.97,21.105-33.08,29.387c-14.539,8.533-27.081,11.719-32.732,8.315
			c-7.939-4.783-19.584-26.817-23.285-49.147c-2.107-12.718-1.027-22.73,2.966-27.469c33.032-39.209,62.493-78.8,86.166-110.613
			c14.147-19.012,26.366-35.432,35.944-47.184c8.958-10.991,13.705-15.459,16.124-17.271c0.071,3.506-0.794,11.606-5.61,30.133
			c-7.374,28.365-22.449,44.482-35.749,58.702c-13.326,14.247-25.912,27.704-26.619,49.693l9.995,0.322
			c0.585-18.228,10.886-29.241,23.927-43.184c5.802-6.203,11.92-12.749,17.673-20.444l2.314,2.085
			c6.277-6.967,12.326-14.341,17.664-20.846c0.729-0.889,1.473-1.795,2.216-2.699c-4.095,9.908-10.335,24.028-18.69,42.287
			c-0.94,2.056-4.301,4.646-7.858,7.388c-11.184,8.62-28.083,21.646-26.191,54.666l9.983-0.572
			c-0.708-12.361,1.475-22.349,6.676-30.534c4.467-7.03,10.401-11.604,15.637-15.64c4.763-3.671,8.876-6.841,10.846-11.146
			c0.566-1.238,1.118-2.446,1.663-3.64l3.05,1.966C392.337,157.428,387.386,167.19,381.09,179.271z"/>
		<path fill="#FFFFFF" stroke="#000000" stroke-miterlimit="10" d="M295.81,271.152c0,0-32.111-42.946,12.797-42.506
			c19.292,0.189,51.348,18.496,38.857,38.951c-12.49,20.456-56.134,49.335-72.66,39.379s-27.625-62.13-12.821-79.703
			C362.305,108.193,420.843-18.832,394.527,82.401c-15.144,58.259-56.023,71.771-57.337,112.641"/>
		<path fill="#FFFFFF" stroke="#000000" stroke-miterlimit="10" d="M377.686,128.926c21.488-35.537,53.719-67.769,9.281,20.214
			c-5.501,10.891-36.044,17.092-33.604,59.687"/>
	</g>
	<g display="inline">
		<path fill="#FFFFFF" stroke="#000000" stroke-miterlimit="10" d="M419.874,270.353c-7.602,4.725-14.977,6.326-15.555,6.446
			l-0.959-4.637c-0.51,4.773-2.637,9.208-6.35,13.106c-8.681,9.115-25.425,18.669-42.657,24.338
			c-6.7,2.205-16.487,4.78-25.625,4.781c-6.961,0-13.544-1.494-18.104-5.786c-10.692-10.062-12.524-34.48-12.815-44.512
			c-0.453-15.578,1.577-36.486,8.63-48.445c7.453-12.638,15.341-24.053,23.392-34.359"/>
		<path fill="#FFFFFF" d="M223.097,368.771l-1.707-4.216c-16.224-40.082-15.198-86.908,2.745-125.259
			c14.371-30.717,38.566-52.866,68.128-62.368c11.467-3.685,24.864-3.859,38.741-0.503l-2.351,9.72
			c-12.09-2.924-23.616-2.819-33.33,0.304c-26.886,8.642-48.951,28.915-62.131,57.085c-16.159,34.538-17.641,76.451-4.17,113.033
			l195.73-58.402c-2.798-9.026-5.978-17.698-9.473-25.838l9.188-3.946c4.266,9.934,8.073,20.615,11.315,31.745l1.39,4.77
			L223.097,368.771z"/>
		<path fill="#FFFFFF" stroke="#000000" stroke-miterlimit="10" d="M335.537,190.083c-8.264-12.396-31.605-11.654-41.744-8.395
			c-69.421,22.313-95.868,111.57-67.769,180.991l204.958-61.156c-3.285-11.277-7.02-21.646-11.109-31.17"/>
	</g>
	<g display="inline">
		<path fill="#FFFFFF" d="M482.644,147.949c3.568-4.998,6.484-9.199,8.815-12.698c6.722-10.089,10.324-15.992,6.224-19.976
			c-3.878-3.766-9.053-0.095-12.831,2.585c-2.305,1.635-5.051,3.746-8.142,6.174c2.17-3.413,4.268-7.074,6.267-11.037
			c15.154-30.042,15.226-37.911,10.056-41.921c-8.556-6.639-24.44,6.621-78.223,53.621c-29.758,26.005-66.792,58.369-107.123,89.53
			c-9.394,7.258-12.024,22.306-12.576,33.65c-1.032,21.211,4.605,50.459,15.512,60.724c4.56,4.292,11.143,5.786,18.104,5.786
			c9.137-0.001,18.924-2.576,25.625-4.78c17.232-5.67,33.976-15.224,42.657-24.339c3.724-3.91,5.854-8.359,6.355-13.148l1.271,4.603
			c0.256-0.071,6.364-1.767,13.078-4.538c9.922-4.095,15.863-8.323,18.164-12.923c5.844-11.687,10.301-27.652,13.556-39.31
			c1.287-4.608,2.738-9.808,3.392-11.235c14.364-17.291,25.431-31.129,32.895-41.134c9.638-12.918,13.71-18.801,9.238-22.878
			C491.361,141.421,487.139,144.174,482.644,147.949z M444.915,202.59c-1.462,1.759-2.392,4.926-5.113,14.673
			c-2.968,10.631-7.454,26.698-12.868,37.526c-1.796,3.592-13.43,8.929-23.686,11.931c-0.18-1.283-0.456-2.581-0.854-3.896
			c-4.588-15.177-23.173-28.883-37.653-32.161c-13.61-3.081-23.289-1.226-28.765,5.516c-10.45,12.866,0.359,37.516,1.626,40.285
			l9.095-4.157c-2.535-5.565-8.519-22.99-2.955-29.828c3.587-4.409,12.198-3.555,18.791-2.062
			c11.473,2.598,26.863,13.97,30.289,25.302c1.458,4.826,0.46,8.965-3.054,12.654c-7.512,7.888-23,16.622-38.542,21.735
			c-16.014,5.27-28.945,5.733-33.75,1.213c-6.75-6.353-13.477-30.35-12.377-52.957c0.627-12.876,3.798-22.435,8.702-26.223
			c40.569-31.346,77.729-63.82,107.588-89.914c17.845-15.594,33.256-29.062,45.101-38.526c11.077-8.851,16.661-12.216,19.408-13.475
			c-0.672,3.442-3.229,11.176-11.85,28.268c-13.199,26.167-31.339,38.736-47.342,49.825c-16.035,11.11-31.18,21.605-36.516,42.948
			l9.701,2.426c4.423-17.693,16.818-26.281,32.51-37.154c6.981-4.837,14.344-9.942,21.593-16.25l1.822,2.527
			c7.607-5.484,15.077-11.413,21.669-16.644c0.9-0.715,1.818-1.443,2.736-2.17c-6.096,8.819-15.178,21.303-27.201,37.384
			c-1.354,1.811-5.185,3.632-9.241,5.561c-12.752,6.062-32.023,15.225-37.148,47.899l9.879,1.55
			c1.919-12.232,6.163-21.533,12.976-28.434c5.852-5.928,12.618-9.146,18.588-11.984c5.431-2.582,10.121-4.812,12.956-8.604
			c0.815-1.091,1.609-2.155,2.395-3.207l2.565,2.566C460.522,183.616,453.621,192.113,444.915,202.59z"/>
		<path fill="#FFFFFF" stroke="#000000" stroke-miterlimit="10" d="M342.149,274.382c0,0-22.314-48.761,21.488-38.843
			c18.817,4.26,46.281,28.925,29.752,46.281S328.1,318.183,314.05,304.96s-21.488-72.729-3.306-86.777
			c123.213-95.2,214.876-200.828,167.769-107.438c-27.11,53.745-73.554,52.065-83.471,91.734"/>
		<path fill="#FFFFFF" stroke="#000000" stroke-miterlimit="10" d="M452.893,148.761c35.536-25.62,70.248-62.81,4.132,25.62
			c-7.307,9.772-38.843,9.092-45.455,51.241"/>
		<path fill="#FFFFFF" stroke="#000000" stroke-miterlimit="10" d="M462.81,173.554c45.454-45.456,34.711-26.446-14.049,32.231
			c-2.241,2.697-8.293,33.118-17.355,51.24c-4.132,8.264-28.1,14.877-28.1,14.877"/>
	</g>
	
		<ellipse transform="matrix(-0.8109 -0.5851 0.5851 -0.8109 323.5128 538.6827)" display="inline" fill="#FFFFFF" stroke="#000000" stroke-miterlimit="10" cx="248.785" cy="217.075" rx="5.372" ry="9.505"/>
	
		<ellipse transform="matrix(-0.8795 -0.4759 0.4759 -0.8795 319.9662 567.1643)" display="inline" fill="#FFFFFF" stroke="#000000" stroke-miterlimit="10" cx="231.785" cy="243.075" rx="5.372" ry="9.505"/>
	
		<ellipse transform="matrix(-0.9519 -0.3064 0.3064 -0.9519 351.4748 599.332)" display="inline" fill="#FFFFFF" stroke="#000000" stroke-miterlimit="10" cx="222.785" cy="272.075" rx="5.372" ry="9.505"/>
	
		<ellipse transform="matrix(-0.9947 -0.1033 0.1033 -0.9947 409.4057 621.3428)" display="inline" fill="#FFFFFF" stroke="#000000" stroke-miterlimit="10" cx="220.785" cy="300.075" rx="5.372" ry="9.505"/>
	
		<ellipse transform="matrix(-0.9887 0.1501 -0.1501 -0.9887 490.8889 627.1104)" display="inline" fill="#FFFFFF" stroke="#000000" stroke-miterlimit="10" cx="221.785" cy="332.075" rx="5.372" ry="9.505"/>
	
		<ellipse transform="matrix(-0.6273 -0.7788 0.7788 -0.6273 285.5546 530.8024)" display="inline" fill="#FFFFFF" stroke="#000000" stroke-miterlimit="10" cx="269.785" cy="197.075" rx="5.372" ry="9.505"/>
	
		<ellipse transform="matrix(-0.2948 -0.9556 0.9556 -0.2948 203.5515 520.3666)" display="inline" fill="#FFFFFF" stroke="#000000" stroke-miterlimit="10" cx="293.785" cy="185.075" rx="5.372" ry="9.504"/>
	
		<ellipse transform="matrix(0.0434 -0.9991 0.9991 0.0434 122.0047 495.5699)" display="inline" fill="#FFFFFF" stroke="#000000" stroke-miterlimit="10" cx="319.785" cy="184.075" rx="5.372" ry="9.504"/>
	
		<line display="inline" fill="none" stroke="#000000" stroke-miterlimit="10" x1="220.661" y1="347.934" x2="424.793" y2="286.778"/>
</g>
<g id="Layer_2">
	<g>
		<path fill="#FFFFFF" d="M95.158,132.794c21.646-28.931,40.306-56.184,55.456-78.312c7.156-10.452,13.767-20.104,19.491-28.114
			c10.222-14.306,17.601-23.353,20.109-22.215c3.773,1.718-2.958,27.614-5.17,36.123c-7.528,28.96-21.42,46.804-33.677,62.547
			c-4.734,6.081-9.218,11.844-12.988,17.802c-3.851,6.085-6.953,12.375-8.811,19.416c0.14,0.122,0.286,0.238,0.42,0.363
			c0.145,0.134,0.277,0.275,0.416,0.413c2.782-10.949,8.634-20.079,15.649-29.44c1.958-2.613,4.005-5.245,6.103-7.939
			c12.316-15.82,26.276-33.75,33.856-62.909c8.046-30.952,6.974-36.212,4.617-37.285c-3.893-1.775-12.878,10.079-31.499,37.07
			c-2.88,4.175-5.983,8.7-9.341,13.605c-15.27,22.304-34.107,49.816-55.972,78.999c0.222-0.022,0.445-0.044,0.67-0.064
			C94.708,132.831,94.934,132.812,95.158,132.794z"/>
		<path fill="#FFFFFF" d="M169.079,85.325c-0.277,0.45-0.552,0.899-0.82,1.343l0.428,0.259l0.428,0.259
			c0.483-0.799,0.967-1.586,1.452-2.368c12.762-20.591,25.872-35.118,28.578-33.619c1.195,0.662,3.167,6.635-21.624,55.716
			c-0.138,0.273-0.311,0.542-0.482,0.811c0.376-0.325,0.746-0.645,1.121-0.968c0.331-0.286,0.66-0.57,0.99-0.855
			c17.468-34.723,24.363-53.427,20.479-55.578C195.167,47.848,179.327,68.654,169.079,85.325z"/>
		<path fill="#FFFFFF" d="M211.65,228.912c-0.15,0.068-0.303,0.136-0.456,0.204c-0.153,0.068-0.301,0.137-0.456,0.205
			c3.985,9.369,7.56,19.407,10.626,29.865L17.318,320.07c-1.823-4.545-3.409-9.181-4.774-13.879l4.309-1.291l107.565-32.225
			l2.573-0.771c-1.626,0.203-3.261,0.347-4.887,0.421l-1.846,0.554L16.572,303.941l-4.312,1.292
			c-0.625-2.206-1.194-4.428-1.719-6.66c0.983,0.91,2.083,1.435,3.205,1.435c0,0,0,0,0.001,0c0.18,0,0.359-0.014,0.539-0.041
			c0.399-0.061,0.778-0.187,1.134-0.369c2.544-1.3,3.909-5.537,3.17-10.403c-0.777-5.121-3.651-9-6.7-9.051
			c-0.202-0.003-0.404,0.01-0.607,0.041c-1.525,0.232-2.745,1.402-3.53,3.143c-0.873-6.628-1.325-13.305-1.348-19.974
			c0.785,2.649,2.347,4.465,4.347,4.673c0.078,0.008,0.156,0.009,0.233,0.013c0.046,0.002,0.092,0.007,0.137,0.007c0,0,0,0,0,0
			c3.153,0,5.948-4.026,6.502-9.364c0.579-5.579-1.533-10.217-4.809-10.557c-0.407-0.042-0.81-0.016-1.204,0.074
			c-2.093,0.473-3.943,2.719-4.955,5.857c0.309-5.499,0.909-10.972,1.798-16.385c0.564,0.961,1.331,1.627,2.263,1.927
			c0.359,0.116,0.736,0.174,1.121,0.174c0,0,0,0,0,0c0.278,0,0.559-0.04,0.84-0.1c2.646-0.56,5.362-3.661,6.694-7.798
			c1.696-5.268,0.636-10.172-2.403-11.271c-0.041-0.016-0.079-0.037-0.121-0.051c-0.358-0.116-0.736-0.174-1.121-0.174
			c-1.303,0-2.662,0.68-3.897,1.839c1.304-4.743,2.844-9.409,4.617-13.975c0.378,0.702,0.899,1.267,1.575,1.632
			c0.545,0.295,1.156,0.444,1.817,0.444c0,0,0,0,0,0c0.212,0,0.428-0.021,0.646-0.051c2.611-0.36,5.535-2.838,7.461-6.398
			c2.315-4.278,2.486-8.672,0.603-10.786c-0.289-0.324-0.622-0.599-1.006-0.807c-0.545-0.296-1.157-0.445-1.819-0.445
			c-0.591,0-1.205,0.125-1.825,0.35c2.532-4.611,5.307-8.992,8.31-13.118c-0.03,1.782,0.531,3.267,1.72,4.125
			c0.194,0.141,0.405,0.254,0.622,0.353c0.516,0.234,1.09,0.36,1.724,0.36c0,0,0,0,0,0c2.661,0,5.907-2.115,8.269-5.39
			c2.544-3.524,3.396-7.357,2.412-9.804c-0.286-0.711-0.719-1.311-1.32-1.745c-0.655-0.473-1.445-0.713-2.346-0.713
			c-0.089,0-0.184,0.021-0.274,0.026c2.922-2.977,5.992-5.757,9.19-8.342c-0.186,1.313,0.051,2.506,0.786,3.418
			c0.291,0.36,0.664,0.636,1.073,0.87c0.711,0.405,1.572,0.638,2.587,0.638c2.396,0,5.317-1.201,7.813-3.212
			c3.001-2.417,4.792-5.423,4.949-7.899c0.072-1.128-0.195-2.147-0.842-2.95c-0.347-0.43-0.798-0.754-1.312-1.003
			c2.59-1.427,5.244-2.733,7.952-3.927c-0.192,0.729-0.205,1.458,0.011,2.157c0.253,0.821,0.803,1.515,1.575,2.062
			c0.129,0.091,0.272,0.173,0.414,0.256c1.052,0.615,2.439,0.984,4.056,1.055c0.188,0.008,0.367,0.027,0.561,0.027c0,0,0,0,0,0
			c0.015,0,0.031-0.002,0.047-0.002c0.215-0.001,0.436-0.016,0.655-0.027c1.297-0.065,2.657-0.3,3.982-0.709
			c3.404-1.05,6.027-2.95,7.244-5.003c0.699-1.18,0.938-2.409,0.584-3.558c-0.191-0.619-0.563-1.158-1.058-1.626
			c2.998-0.324,6.262-0.428,9.558-0.244c-1.239,0.919-1.998,2.085-2.054,3.387c-0.046,1.072,0.383,2.086,1.168,2.978
			c1.625,1.845,4.793,3.158,8.572,3.322c0.255,0.011,0.509,0.017,0.759,0.017c0,0,0,0,0.001,0c0.883,0,1.728-0.071,2.53-0.195
			c0.241-0.037,0.476-0.08,0.708-0.127c0.146-0.03,0.296-0.057,0.438-0.09c0.106-0.025,0.206-0.056,0.309-0.083
			c1.2-0.315,2.256-0.77,3.114-1.335c1.206-0.795,2.019-1.803,2.289-2.942c1.971,1.25,3.677,2.77,5.015,4.59
			c0.143,0.194,0.292,0.384,0.426,0.585l0.416-0.277l0.401-0.268l0.015-0.01c-1.595-2.393-3.723-4.305-6.193-5.812
			c-0.044-0.452-0.169-0.892-0.372-1.314c-0.078-0.162-0.165-0.321-0.265-0.478c-0.091-0.144-0.197-0.283-0.306-0.421
			c-0.177-0.226-0.37-0.446-0.59-0.656c-1.713-1.63-4.692-2.765-8.188-2.917c-2.516-0.115-4.797,0.311-6.568,1.104
			c-4.324-0.344-8.624-0.168-12.395,0.324c-0.132-0.067-0.283-0.12-0.424-0.18c-0.159-0.068-0.308-0.144-0.478-0.203
			c-0.162-0.057-0.342-0.096-0.514-0.144c-0.87-0.242-1.845-0.384-2.922-0.384c-0.478,0-0.969,0.035-1.465,0.086
			c-1.062,0.109-2.153,0.323-3.22,0.653c-3.444,1.062-6.086,2.995-7.284,5.075c-3.355,1.438-6.625,3.053-9.802,4.841
			c-0.334-0.055-0.683-0.09-1.054-0.09c-2.396,0-5.317,1.201-7.813,3.211c-2.196,1.769-3.742,3.852-4.477,5.813
			c-3.974,3.129-7.748,6.567-11.305,10.287c-2.179,0.724-4.494,2.539-6.296,5.036c-1.292,1.791-2.143,3.661-2.545,5.391
			c-3.716,4.947-7.104,10.266-10.131,15.925c-1.759,1.111-3.459,2.983-4.728,5.327c-1.671,3.09-2.226,6.24-1.697,8.549
			c-2.214,5.572-4.078,11.297-5.593,17.13c-0.867,1.219-1.609,2.686-2.135,4.316c-0.804,2.497-1.008,5.03-0.575,7.134
			c0.034,0.163,0.078,0.313,0.118,0.469c-2.855,16.29-3.084,33.155-0.683,49.668c-0.323,1.604-0.373,3.454-0.076,5.41
			c0.351,2.308,1.128,4.357,2.154,5.923c1.814,8.178,4.281,16.214,7.428,23.987l0.17,0.422l205.395-61.286l0.476-0.143l-0.139-0.477
			C219.354,248.708,215.715,238.465,211.65,228.912z M7.842,287.246c0.047-0.555,0.126-1.087,0.234-1.592
			c0.527-2.458,1.746-4.236,3.357-4.481c0.129-0.02,0.259-0.029,0.389-0.029c0.063,0,0.126,0.012,0.19,0.017
			c2.479,0.174,4.91,3.7,5.59,8.185c0.629,4.147-0.458,7.982-2.433,9.231c-0.323,0.204-0.667,0.347-1.033,0.402
			c-0.13,0.02-0.26,0.029-0.39,0.029c-1.312,0-2.622-0.966-3.68-2.528c-0.282-0.417-0.545-0.876-0.786-1.372
			c-0.606-1.244-1.072-2.71-1.313-4.301C7.781,289.572,7.748,288.366,7.842,287.246z M6.939,257.572
			c0.425-4.092,2.375-7.515,4.569-8.298c0.31-0.11,0.623-0.169,0.938-0.169c0.089,0,0.178,0.005,0.267,0.014
			c2.627,0.273,4.421,4.604,3.917,9.459c-0.494,4.767-3.064,8.606-5.668,8.454c-0.035-0.002-0.071,0.004-0.106,0
			C8.23,266.758,6.437,262.426,6.939,257.572z M9.308,228.126c0.319-0.896,0.707-1.74,1.147-2.506
			c0.249-0.434,0.514-0.842,0.792-1.222c1.352-1.851,2.992-3.021,4.484-3.021c0.281,0,0.555,0.042,0.814,0.125
			c0.047,0.016,0.09,0.041,0.137,0.06c2.404,0.934,3.208,5.447,1.741,10.005c-1.141,3.547-3.407,6.335-5.568,7.031
			c-0.342,0.11-0.682,0.173-1.014,0.173c-0.281,0-0.555-0.042-0.814-0.125c-1.043-0.336-1.834-1.32-2.267-2.8
			c-0.06-0.204-0.113-0.417-0.159-0.64c-0.039-0.188-0.045-0.395-0.073-0.59c-0.11-0.781-0.152-1.605-0.087-2.475
			c0.087-1.153,0.32-2.357,0.708-3.561C9.198,228.428,9.253,228.278,9.308,228.126z M23.098,193.669
			c0.902-0.535,1.803-0.838,2.629-0.838c0.494,0,0.945,0.109,1.343,0.324c0.379,0.205,0.689,0.51,0.944,0.881
			c1.31,1.903,0.999,5.765-0.945,9.356c-1.61,2.977-4.009,5.182-6.15,5.767c-0.369,0.101-0.73,0.159-1.078,0.159
			c-0.493,0-0.944-0.109-1.341-0.323c-0.744-0.402-1.247-1.16-1.514-2.142c-0.077-0.283-0.131-0.588-0.168-0.905
			c-0.044-0.374-0.061-0.768-0.05-1.18c0.048-1.816,0.621-3.957,1.733-6.012c0.762-1.408,1.701-2.641,2.706-3.615
			c0.328-0.317,0.662-0.607,1-0.866C22.502,194.048,22.8,193.846,23.098,193.669z M34.545,174.353
			c0.36-0.717,0.788-1.434,1.289-2.129c1.018-1.41,2.228-2.591,3.464-3.453c0.451-0.314,0.903-0.585,1.354-0.808
			c0.405-0.2,0.803-0.35,1.196-0.467c0.499-0.148,0.987-0.247,1.445-0.247c0.687,0,1.279,0.176,1.761,0.523
			c0.546,0.395,0.912,0.993,1.109,1.729c0.575,2.146-0.3,5.477-2.427,8.424c-2.147,2.977-5.145,4.976-7.459,4.976
			c-0.414,0-0.79-0.072-1.131-0.199c-0.225-0.083-0.438-0.187-0.629-0.324c-1.221-0.882-1.546-2.773-1.073-4.97
			c0.096-0.445,0.222-0.902,0.383-1.367C34.02,175.484,34.262,174.918,34.545,174.353z M54.492,154.883
			c0.783-1.254,1.88-2.509,3.237-3.602c2.113-1.702,4.522-2.771,6.578-2.952c0.205-0.018,0.411-0.038,0.608-0.038
			c0.12,0,0.248,0.004,0.378,0.013c0.271,0.018,0.558,0.06,0.846,0.13c0.607,0.15,1.214,0.441,1.658,0.992
			c0.6,0.745,0.739,1.789,0.5,2.96c-0.421,2.064-2.03,4.53-4.455,6.483c-2.325,1.873-5.011,2.99-7.187,2.99
			c-0.524,0-1.16-0.073-1.75-0.315c-0.42-0.173-0.818-0.429-1.132-0.819c-0.747-0.927-0.783-2.317-0.256-3.843
			c0.116-0.334,0.259-0.675,0.428-1.02C54.104,155.538,54.288,155.21,54.492,154.883z M77.643,141.759
			c1.304-1.369,3.322-2.604,5.707-3.339c0.678-0.209,1.366-0.367,2.047-0.483c0.798-0.136,1.587-0.211,2.343-0.211
			c0.81,0,1.552,0.083,2.225,0.228c0.017,0.004,0.032,0.009,0.049,0.013c0.18,0.04,0.356,0.083,0.524,0.133
			c0.174,0.052,0.336,0.112,0.498,0.173c0.011,0.004,0.022,0.009,0.033,0.013c0.292,0.113,0.559,0.241,0.803,0.386
			c0.76,0.449,1.298,1.037,1.518,1.749c0.31,1.006-0.033,2.143-0.844,3.238c-1.223,1.651-3.519,3.208-6.323,4.073
			c-0.95,0.293-1.917,0.486-2.862,0.594c-0.229,0.026-0.457,0.05-0.683,0.064c-0.219,0.014-0.436,0.024-0.65,0.027
			c-0.064,0.001-0.13,0.008-0.194,0.008c0,0,0,0-0.001,0c-1.579,0-2.918-0.299-3.915-0.82c-0.027-0.015-0.052-0.031-0.079-0.046
			c-0.835-0.457-1.423-1.073-1.656-1.828c-0.234-0.757-0.096-1.589,0.33-2.421c0.125-0.246,0.276-0.49,0.451-0.734
			C77.161,142.299,77.387,142.026,77.643,141.759z M106.914,137.563c1.031-0.238,2.167-0.372,3.367-0.372
			c0.236,0,0.476,0.005,0.716,0.016c3.545,0.154,6.63,1.471,8.011,3.191c0.058,0.072,0.117,0.143,0.169,0.217
			c0.106,0.15,0.198,0.302,0.277,0.458c0.04,0.078,0.07,0.156,0.103,0.235c0.042,0.103,0.081,0.206,0.111,0.31
			c0.038,0.131,0.072,0.262,0.089,0.396c0.021,0.149,0.031,0.3,0.024,0.452c-0.002,0.057-0.017,0.111-0.023,0.167
			c-0.087,0.804-0.541,1.546-1.278,2.182c-0.573,0.494-1.309,0.924-2.177,1.265c-0.268,0.105-0.55,0.2-0.84,0.288
			c-0.25,0.076-0.506,0.144-0.771,0.206c-0.694,0.163-1.436,0.279-2.214,0.337c-0.616,0.046-1.252,0.06-1.905,0.033
			c-2.633-0.114-5.01-0.872-6.628-1.958c-1.378-0.924-2.208-2.086-2.156-3.3c0.058-1.323,1.12-2.492,2.783-3.307
			c0.327-0.16,0.672-0.309,1.042-0.44C106.024,137.793,106.459,137.668,106.914,137.563z"/>
		<path fill="#FFFFFF" d="M164.515,259.619c-1.896,0.965-3.841,1.896-5.822,2.788l3.312-0.992l50.464-15.119l3.469-1.039
			l-0.287-0.957l-3.514,1.053l-45.08,13.506L164.515,259.619z"/>
		<path fill="#FFFFFF" d="M182.726,108.759c-8.904,7.699-18.243,15.697-27.95,23.863c-1.388,1.168-2.781,2.337-4.184,3.512
			c-0.304,0.254-0.61,0.509-0.915,0.764c-0.289,0.241-0.578,0.482-0.867,0.724c-2.338,1.952-4.696,3.911-7.073,5.877
			c-3.003,2.484-6.032,4.975-9.094,7.473c-0.552,0.451-1.098,0.9-1.652,1.352c-1.425,1.16-2.868,2.322-4.305,3.484
			c-8.244,6.665-16.665,13.349-25.249,19.98c-1.879,1.452-3.536,3.446-4.961,5.909c-0.807,1.394-1.535,2.946-2.187,4.638
			c-0.064,0.168-0.131,0.333-0.194,0.505c-0.065,0.176-0.133,0.347-0.197,0.525c-0.517,1.459-0.972,3.025-1.375,4.677
			c-1.01,4.135-1.665,8.842-1.918,14.056c-0.247,5.066-0.117,10.302,0.327,15.471c1.042,12.14,3.828,23.911,7.606,32.277
			c0.656,1.453,1.342,2.8,2.055,4.031c0.08,0.138,0.158,0.28,0.238,0.415c0.087,0.146,0.176,0.281,0.263,0.423
			c1.147,1.862,2.355,3.427,3.612,4.61c3.233,3.043,8.427,4.564,15.124,4.563c6.691,0,14.882-1.519,24.115-4.557
			c16.58-5.455,32.597-14.549,40.805-23.167c4.861-5.104,6.36-11.342,4.335-18.039c-3.257-10.775-14.969-21.026-26.165-26.205
			c-0.749-0.347-1.495-0.67-2.237-0.97c-2.035-0.822-4.033-1.469-5.938-1.899c-9.381-2.126-16.457-1.709-21.132,1.21
			c-1.207,0.754-2.262,1.666-3.146,2.754c-0.083,0.104-0.154,0.215-0.234,0.32c-0.1,0.131-0.196,0.264-0.291,0.397
			c-0.094,0.134-0.195,0.263-0.284,0.399c-0.837,1.287-1.443,2.716-1.873,4.232c-2.339,8.25,0.746,19.205,2.986,25.418
			c0.943,2.617,1.729,4.385,1.897,4.754c0.007,0.016,0.02,0.043,0.024,0.054l0.455-0.208l0.455-0.208
			c-0.006-0.013-0.049-0.108-0.113-0.256c-0.027-0.063-0.061-0.141-0.098-0.226c-0.339-0.791-1.057-2.527-1.867-4.859
			c-2.111-6.078-4.808-16.142-2.884-23.757c0.395-1.563,0.981-3.026,1.812-4.326c0.088-0.138,0.187-0.268,0.28-0.401
			c0.095-0.137,0.192-0.271,0.293-0.403c0.075-0.099,0.14-0.203,0.218-0.3c0.884-1.088,1.958-1.985,3.201-2.715
			c4.447-2.608,11.167-2.923,20.08-0.905c1.782,0.403,3.648,1,5.549,1.753c0.7,0.277,1.403,0.572,2.11,0.893
			c11.064,5.009,22.733,15.12,25.944,25.744c1.941,6.423,0.561,12.162-4.103,17.06c-16.538,17.364-64.896,36.052-78.634,23.121
			c-1.194-1.124-2.342-2.603-3.434-4.359c-0.088-0.143-0.177-0.281-0.264-0.427c-0.083-0.138-0.165-0.275-0.246-0.416
			c-0.714-1.227-1.402-2.576-2.059-4.033c-3.868-8.578-6.672-20.848-7.585-33.396c-0.337-4.627-0.42-9.29-0.2-13.82
			c0.258-5.308,0.928-10.08,1.969-14.23c0.413-1.647,0.888-3.191,1.417-4.636c0.064-0.176,0.132-0.346,0.198-0.519
			c0.065-0.17,0.128-0.344,0.195-0.511c0.675-1.69,1.436-3.22,2.273-4.587c1.285-2.097,2.75-3.813,4.393-5.084
			c7.937-6.133,15.739-12.309,23.388-18.474c2.105-1.697,4.204-3.393,6.284-5.086c0.549-0.447,1.089-0.893,1.636-1.34
			c2.662-2.172,5.299-4.339,7.917-6.501c2.219-1.832,4.421-3.658,6.607-5.479c0.258-0.215,0.514-0.429,0.771-0.644
			c0.273-0.228,0.545-0.456,0.818-0.683c1.597-1.333,3.19-2.665,4.769-3.991c9.392-7.889,18.441-15.626,27.093-23.097
			c1.677-1.448,3.347-2.891,4.993-4.317c8.095-7.015,15.819-13.764,23.102-20.128c38.246-33.423,65.881-57.567,71.232-53.417
			c2.914,2.261-0.987,14.07-11.595,35.099c-13.714,27.188-32.353,40.103-48.797,51.497c-15.983,11.076-29.788,20.641-34.712,40.341
			l0.485,0.121l0.485,0.121c4.834-19.335,18.495-28.801,34.312-39.761c16.542-11.462,35.292-24.455,49.12-51.869
			c11.312-22.426,14.802-33.634,11.315-36.339c-6.006-4.664-31.035,17.215-72.503,53.454c-7.349,6.422-15.144,13.233-23.32,20.317
			C184.552,107.181,183.634,107.973,182.726,108.759z"/>
		<path fill="#FFFFFF" d="M243.6,106.355l0.292,0.406l0.292,0.406c7.522-5.424,14.95-11.318,21.502-16.519
			c8.089-6.42,18.155-14.406,19.163-13.428c0.239,0.232,0.443,1.855-6.968,12.981c-5.879,8.826-15.494,22.134-30.258,41.88
			c-2.021,2.702-6.141,4.662-10.913,6.93c-4.528,2.153-9.655,4.598-14.589,8.244c-8.807,6.506-16.997,16.852-20.046,36.289
			l0.494,0.077l0.494,0.077c0.079-0.502,0.17-0.981,0.255-1.471c2.942-16.822,9.902-26.498,17.625-32.783
			c5.403-4.397,11.175-7.143,16.196-9.53c4.892-2.326,9.116-4.334,11.284-7.234c36.943-49.411,38.668-54.675,37.122-56.178
			c-1.504-1.461-6.523,2.284-20.481,13.362C258.521,95.058,251.104,100.945,243.6,106.355z"/>
		<g>
			<path fill="#FFFFFF" d="M95.688,133.75l0.271-0.365c21.674-28.968,40.418-56.355,55.48-78.355
				c7.042-10.286,13.694-20.018,19.479-28.115c10.377-14.522,16.708-21.921,18.878-21.921c0.001,0,0.002,0,0.002,0
				c0.691,0,2.32,4.055-5.723,34.996c-7.476,28.76-21.301,46.551-33.498,62.218c-4.749,6.1-9.235,11.862-13.044,17.881
				c-4.371,6.908-7.21,13.166-8.933,19.695l-0.159,0.602l0.638,0.552c0.077,0.065,0.154,0.129,0.229,0.198
				c0.083,0.078,0.163,0.158,0.242,0.239l1.391,1.383l0.431-1.697c2.848-11.208,9.124-20.603,15.48-29.086
				c1.997-2.666,4.079-5.339,6.093-7.926c12.375-15.896,26.402-33.913,34.033-63.271c8.65-33.276,6.858-37.174,4.064-38.446
				c-0.383-0.175-0.799-0.263-1.238-0.263c-4.742,0-13.169,11.106-31.499,37.675c-2.88,4.176-5.984,8.701-9.343,13.607
				c-15.177,22.169-34.066,49.759-55.947,78.964l-1.367,1.823l2.929-0.294L95.688,133.75z"/>
			<path fill="#FFFFFF" d="M168.227,84.801c-0.278,0.453-1.341,2.205-1.341,2.205l2.567,1.553l0.518-0.856
				c0.481-0.796,0.963-1.58,1.446-2.359c12.473-20.125,24.351-33.03,27.222-33.248c0.432,0.845,1.631,7.562-22.01,54.369
				c-0.118,0.233-0.267,0.463-0.414,0.694l-0.019,0.03l1.497,1.294l2.261-1.954l0.089-0.178
				c8.711-17.316,14.865-30.811,18.291-40.107c3.764-10.212,4.312-15.392,1.78-16.795c-0.392-0.217-0.836-0.327-1.321-0.327
				C191.71,49.122,174.327,74.877,168.227,84.801z"/>
			<path fill="#FFFFFF" d="M212.57,228.52l-0.401-0.943l-0.933,0.424l-1.805,0.802l0.386,0.909
				c1.882,4.424,3.669,8.997,5.354,13.687l-51.03,15.288l-0.081,0.041c-1.86,0.947-3.805,1.878-5.779,2.768l0.698,1.87
				l57.189-17.134c1.395,4.021,2.718,8.118,3.955,12.282L17.91,318.85c-1.52-3.861-2.904-7.885-4.125-11.987l113.493-34.001
				l-0.411-1.95c-1.63,0.204-3.248,0.343-4.808,0.414l-0.124,0.006L12.95,303.983c-0.294-1.067-0.58-2.153-0.86-3.274
				c0.546,0.197,1.103,0.299,1.658,0.299c0.229,0,0.458-0.018,0.689-0.053c0.497-0.075,0.982-0.232,1.439-0.467
				c2.973-1.519,4.496-6.225,3.704-11.444c-0.862-5.677-4.088-9.841-7.745-9.9c-0.234,0-0.468,0.017-0.701,0.053
				c-1.008,0.153-1.927,0.631-2.709,1.392c-0.503-4.386-0.821-8.805-0.951-13.204c0.896,0.944,1.977,1.512,3.18,1.637
				c0.075,0.007,0.471,0.024,0.471,0.024c3.727,0,6.88-4.315,7.497-10.261c0.298-2.873-0.072-5.629-1.043-7.761
				c-1.051-2.308-2.705-3.691-4.657-3.894c-0.161-0.017-0.321-0.025-0.48-0.025c-0.35,0-0.703,0.04-1.046,0.118
				c-1.243,0.281-2.409,1.062-3.403,2.235c0.278-3.204,0.656-6.402,1.13-9.565c0.398,0.288,0.831,0.508,1.292,0.656
				c0.456,0.148,0.937,0.223,1.43,0.223c0.319,0,0.662-0.04,1.047-0.121c3.024-0.64,6.014-4.043,7.438-8.47
				c1.879-5.835,0.583-11.217-2.992-12.51l-0.122-0.052l-0.054-0.018c-0.456-0.148-0.937-0.223-1.429-0.223
				c-0.721,0-1.456,0.163-2.185,0.48c0.961-3.254,2.04-6.482,3.221-9.639c0.242,0.205,0.503,0.383,0.783,0.534
				c0.692,0.375,1.464,0.565,2.293,0.565c0.258,0,0.52-0.023,0.783-0.06c2.975-0.411,6.119-3.06,8.204-6.913
				c2.508-4.635,2.696-9.428,0.47-11.927c-0.376-0.423-0.807-0.767-1.276-1.021c-0.671-0.364-1.417-0.554-2.219-0.566
				c1.815-3.179,3.759-6.259,5.805-9.197c0.355,0.983,0.943,1.79,1.737,2.363c0.229,0.167,0.49,0.314,0.794,0.453
				c0.657,0.299,1.376,0.45,2.138,0.45c2.972,0,6.536-2.278,9.08-5.804c2.675-3.706,3.667-7.931,2.528-10.763
				c-0.369-0.918-0.928-1.653-1.662-2.182c-0.336-0.243-0.698-0.438-1.084-0.583c1.966-1.929,4.021-3.795,6.138-5.573
				c0.162,0.741,0.477,1.41,0.938,1.983c0.339,0.421,0.783,0.784,1.356,1.111c0.895,0.51,1.932,0.769,3.083,0.769
				c2.617,0,5.773-1.284,8.441-3.434c3.149-2.537,5.138-5.758,5.319-8.615c0.089-1.409-0.277-2.668-1.061-3.641
				c-0.069-0.086-0.142-0.171-0.219-0.252c1.613-0.854,3.272-1.677,4.96-2.455c0.031,0.289,0.09,0.566,0.175,0.844
				c0.31,1.004,0.985,1.883,1.952,2.569c0.138,0.097,0.288,0.16,0.487,0.276c1.201,0.702,2.763,1.06,4.517,1.137l0.179-0.097
				c0.126,0.009,0.252-0.198,0.422-0.198c0.019,0,0.037,0,0.056,0c0.185,0,0.375,0.204,0.563,0.193l0.138,0.207
				c1.419-0.071,2.841-0.325,4.227-0.752c3.509-1.083,6.429-3.119,7.81-5.449c0.871-1.47,1.106-2.978,0.679-4.362
				c-0.052-0.168-0.115-0.333-0.188-0.496c1.471-0.113,2.966-0.17,4.464-0.17c0.337,0,0.674,0.003,1.011,0.009
				c-0.488,0.75-0.759,1.567-0.796,2.425c-0.056,1.292,0.434,2.565,1.417,3.683c1.868,2.12,5.337,3.488,9.278,3.66
				c0.27,0.012,0.538,0.018,0.804,0.018c0.893,0,1.796-0.069,2.683-0.207c0.256-0.04,0.507-0.085,0.758-0.136
				c0,0,0.36-0.071,0.465-0.096c0.081-0.019,0.334-0.09,0.334-0.09c1.305-0.342,2.452-0.836,3.411-1.467
				c0.977-0.644,1.72-1.41,2.201-2.257c1.492,1.077,2.75,2.305,3.748,3.663l0.13,0.175c0.092,0.123,0.184,0.244,0.27,0.372
				l0.555,0.832l2.496-1.664l-0.555-0.833c-1.52-2.28-3.573-4.25-6.108-5.864c-0.081-0.391-0.211-0.772-0.388-1.141
				c-0.095-0.197-0.201-0.392-0.322-0.581c-0.108-0.17-0.233-0.336-0.363-0.502c-0.227-0.289-0.452-0.539-0.687-0.762
				c-1.964-1.87-5.184-3.033-8.832-3.191c-0.287-0.013-0.572-0.02-0.853-0.02c-2.168,0-4.212,0.382-5.931,1.106
				c-1.441-0.108-2.924-0.163-4.412-0.163c-2.577,0-5.154,0.16-7.665,0.476c-0.016-0.006-0.302-0.127-0.302-0.127
				c-0.136-0.062-0.273-0.122-0.417-0.172c-0.137-0.048-0.284-0.087-0.432-0.125l-0.145-0.038c-1.003-0.279-2.076-0.421-3.19-0.421
				c-0.462,0-0.959,0.029-1.567,0.091c-1.164,0.119-2.312,0.352-3.413,0.692c-3.409,1.052-6.248,2.995-7.678,5.239
				c-3.165,1.368-6.292,2.912-9.307,4.596c-0.292-0.035-0.576-0.052-0.86-0.052c-2.617,0-5.772,1.283-8.44,3.433
				c-2.17,1.748-3.823,3.86-4.682,5.975c-3.84,3.04-7.548,6.415-11.028,10.038c-2.343,0.852-4.718,2.776-6.552,5.316
				c-1.276,1.768-2.192,3.679-2.658,5.541c-3.651,4.878-7.003,10.146-9.967,15.661c-1.863,1.243-3.577,3.204-4.847,5.55
				c-1.678,3.102-2.347,6.336-1.857,8.935c-2.137,5.413-3.979,11.06-5.476,16.793c-0.9,1.302-1.647,2.832-2.165,4.437
				c-0.855,2.659-1.07,5.373-0.603,7.642c0.022,0.107,0.048,0.21,0.075,0.312c-2.84,16.337-3.066,33.022-0.674,49.599
				c-0.325,1.73-0.343,3.657-0.051,5.585c0.352,2.314,1.113,4.441,2.206,6.164c1.844,8.268,4.346,16.332,7.438,23.971l0.511,1.266
				l207.695-61.975l-0.417-1.429C220.313,248.424,216.662,238.135,212.57,228.52z M105.013,139.275
				c0.293-0.144,0.603-0.277,0.936-0.395c0.366-0.129,0.766-0.245,1.19-0.343c0.993-0.229,2.05-0.346,3.142-0.346
				c0.222,0,0.447,0.005,0.673,0.015c3.106,0.135,6.03,1.268,7.31,2.863c0.033,0.04,0.066,0.08,0.097,0.124
				c0.077,0.109,0.145,0.221,0.205,0.339c0.02,0.038,0.034,0.076,0.067,0.159c0.028,0.068,0.054,0.137,0.075,0.206
				c0.023,0.082,0.047,0.164,0.059,0.252c0.013,0.09,0.02,0.182,0.017,0.243l-0.019,0.132c-0.072,0.661-0.549,1.198-0.937,1.532
				c-0.493,0.425-1.128,0.792-1.889,1.092c-0.244,0.095-0.5,0.181-0.766,0.261c-0.229,0.07-0.465,0.132-0.708,0.189
				c-0.664,0.155-1.356,0.261-2.061,0.313c-0.378,0.028-0.765,0.044-1.159,0.044c-0.208,0-0.417-0.004-0.627-0.013
				c-2.343-0.102-4.572-0.754-6.115-1.789c-1.124-0.753-1.748-1.638-1.714-2.426C102.827,140.843,103.638,139.949,105.013,139.275z
				 M77.402,143.764c0.104-0.203,0.229-0.405,0.373-0.605c0.173-0.241,0.372-0.479,0.592-0.709c1.239-1.301,3.162-2.421,5.277-3.074
				c0.607-0.187,1.253-0.339,1.921-0.453c0.767-0.13,1.499-0.197,2.175-0.197c0.704,0,1.381,0.069,2.06,0.217
				c0.156,0.035,0.309,0.072,0.454,0.115c0.149,0.044,0.288,0.096,0.455,0.161c0.239,0.093,0.459,0.198,0.655,0.314
				c0.573,0.338,0.933,0.736,1.071,1.182c0.268,0.869-0.319,1.844-0.692,2.348c-1.152,1.557-3.326,2.945-5.814,3.712
				c-0.855,0.264-1.757,0.451-2.682,0.556c-0.213,0.025-0.424,0.046-0.633,0.06c-0.203,0.013-0.403,0.022-0.601,0.025l-0.18,0.008
				c-1.375,0-2.568-0.244-3.514-0.744c-0.437-0.239-0.997-0.649-1.181-1.246C76.99,144.958,77.079,144.396,77.402,143.764z
				 M54.462,157.209c0.102-0.294,0.23-0.599,0.381-0.907c0.145-0.295,0.312-0.593,0.497-0.89c0.758-1.214,1.801-2.374,3.016-3.353
				c1.951-1.571,4.151-2.568,6.081-2.739c0.162-0.014,0.323-0.03,0.478-0.03c0.1,0,0.206,0.004,0.313,0.011
				c0.227,0.015,0.453,0.049,0.671,0.103c0.501,0.124,0.867,0.336,1.119,0.648c0.484,0.602,0.43,1.492,0.299,2.133
				c-0.391,1.918-1.963,4.181-4.103,5.904c-2.152,1.734-4.604,2.769-6.559,2.769c-0.358,0-0.887-0.042-1.37-0.24
				c-0.315-0.13-0.555-0.3-0.733-0.521C54.062,159.488,54.03,158.462,54.462,157.209z M34.421,177.618
				c0.09-0.417,0.208-0.837,0.351-1.25c0.175-0.506,0.4-1.033,0.667-1.566c0.351-0.698,0.756-1.369,1.206-1.992
				c0.921-1.276,2.037-2.389,3.226-3.218c0.415-0.289,0.826-0.535,1.224-0.731c0.332-0.164,0.672-0.296,1.039-0.405
				c0.465-0.138,0.844-0.206,1.16-0.206c0.472,0,0.868,0.113,1.175,0.334c0.34,0.246,0.585,0.642,0.729,1.177
				c0.518,1.933-0.395,4.979-2.272,7.58c-1.937,2.685-4.671,4.561-6.648,4.561c-0.279,0-0.536-0.045-0.785-0.137
				c-0.161-0.06-0.289-0.125-0.39-0.197C34.272,180.967,34.018,179.491,34.421,177.618z M19.38,199.233
				c0.689-1.274,1.562-2.441,2.522-3.373c0.3-0.291,0.607-0.557,0.914-0.792c0.263-0.203,0.528-0.382,0.792-0.539
				c0.77-0.457,1.502-0.698,2.119-0.698c0.325,0,0.617,0.069,0.867,0.204c0.221,0.12,0.416,0.305,0.597,0.568
				c0.949,1.38,0.921,4.763-1,8.313c-1.452,2.685-3.625,4.756-5.534,5.278c-0.301,0.083-0.576,0.124-0.815,0.124
				c-0.325,0-0.616-0.068-0.866-0.203c-0.59-0.32-0.883-1.006-1.025-1.525c-0.06-0.22-0.105-0.468-0.14-0.759
				c-0.039-0.328-0.053-0.676-0.044-1.037C17.813,203.045,18.386,201.07,19.38,199.233z M9.438,232.218
				c0.083-1.102,0.306-2.222,0.662-3.329c0.037-0.113,0.077-0.224,0.15-0.428c0.296-0.833,0.657-1.622,1.072-2.343
				c0.228-0.396,0.474-0.776,0.732-1.13c1.194-1.635,2.568-2.61,3.676-2.61c0.178,0,0.349,0.026,0.465,0.062l0.125,0.055
				c1.67,0.649,2.554,4.408,1.151,8.767c-1.014,3.153-3.039,5.779-4.923,6.386c-0.257,0.083-0.495,0.125-0.707,0.125
				c-0.178,0-0.349-0.026-0.508-0.077c-0.706-0.228-1.279-0.983-1.614-2.13c-0.053-0.179-0.099-0.365-0.139-0.559
				c-0.017-0.08-0.023-0.166-0.031-0.251c-0.009-0.092-0.018-0.185-0.031-0.276C9.408,233.701,9.382,232.961,9.438,232.218z
				 M7.934,257.675c0.425-4.089,2.332-6.896,3.911-7.459c0.206-0.074,0.409-0.111,0.603-0.111c0.056,0,0.113,0.003,0.164,0.008
				c1.818,0.189,3.499,3.805,3.025,8.361c-0.462,4.454-2.752,7.559-4.615,7.559c-0.001,0-0.075-0.002-0.075-0.002l0.013,0.006
				C9.142,265.848,7.462,262.231,7.934,257.675z M10.896,295.918c-0.254-0.375-0.495-0.795-0.715-1.249
				c-0.584-1.199-1.007-2.587-1.224-4.013c-0.17-1.122-0.209-2.241-0.118-3.327c0.042-0.505,0.115-0.998,0.215-1.466
				c0.454-2.115,1.423-3.534,2.529-3.702c0.08-0.013,0.16-0.019,0.239-0.019l0.12,0.014c1.729,0.122,4.007,2.961,4.671,7.338
				c0.605,3.989-0.531,7.32-1.978,8.236c-0.225,0.142-0.437,0.227-0.647,0.258c-0.081,0.013-0.161,0.019-0.241,0.019
				C12.834,298.007,11.794,297.246,10.896,295.918z"/>
			<path fill="#FFFFFF" d="M182.071,108.002c-10.04,8.682-19.179,16.484-27.939,23.854c-1.387,1.168-2.779,2.336-4.182,3.51
				l-1.781,1.487c-2.337,1.951-4.693,3.909-7.069,5.874c-3.002,2.482-6.029,4.972-9.089,7.469l-1.65,1.351
				c-1.04,0.846-2.088,1.693-3.137,2.541l-1.165,0.941c-8.873,7.174-17.126,13.705-25.231,19.967c-1.954,1.51-3.708,3.596-5.215,6.2
				c-0.818,1.412-1.576,3.02-2.255,4.78l-0.4,1.055c-0.509,1.438-0.981,3.044-1.403,4.774c-1.039,4.252-1.693,9.045-1.946,14.245
				c-0.242,4.982-0.131,10.232,0.329,15.605c1.05,12.221,3.853,24.106,7.691,32.605c0.667,1.478,1.374,2.867,2.101,4.124
				l0.246,0.434l0.27,0.448c1.223,1.985,2.494,3.631,3.778,4.84c3.409,3.208,8.726,4.888,15.803,4.888h0.006
				c6.919,0,15.138-1.603,24.427-4.66c16.725-5.502,32.903-14.751,41.217-23.48c5.124-5.379,6.703-11.956,4.568-19.018
				c-3.513-11.622-15.943-21.846-26.702-26.823c-0.764-0.354-1.525-0.683-2.282-0.989c-2.125-0.859-4.174-1.514-6.091-1.947
				c-3.984-0.903-7.619-1.361-10.802-1.361c-4.486,0-8.214,0.908-11.081,2.698c-1.318,0.823-2.459,1.823-3.395,2.974
				c-0.061,0.076-0.117,0.154-0.172,0.232l-0.08,0.11c-0.106,0.14-0.407,0.558-0.407,0.558c-0.072,0.099-0.144,0.197-0.21,0.299
				c-0.846,1.3-1.518,2.816-1.997,4.505c-2.443,8.615,0.835,20.006,3.007,26.03c0.977,2.71,1.778,4.498,1.953,4.883l0.415,0.912
				l2.728-1.25l-0.414-0.908l-0.201-0.459c-0.346-0.806-1.044-2.5-1.841-4.793c-1.885-5.426-4.762-15.654-2.859-23.184
				c0.387-1.532,0.954-2.889,1.686-4.033c0.049-0.077,0.102-0.15,0.155-0.224l0.104-0.146c0.087-0.125,0.176-0.248,0.267-0.366
				l0.199-0.276c0.785-0.967,1.771-1.802,2.931-2.482c2.353-1.38,5.453-2.08,9.212-2.08c2.955,0,6.366,0.433,10.141,1.288
				c1.69,0.382,3.507,0.957,5.401,1.707c0.685,0.271,1.374,0.56,2.066,0.874c9.936,4.498,22.122,14.277,25.4,25.123
				c1.829,6.053,0.527,11.463-3.87,16.081c-13.032,13.683-44.502,27.115-63.534,27.116c-6.24,0-10.847-1.357-13.69-4.034
				c-1.095-1.031-2.195-2.431-3.27-4.158l-0.256-0.414l-0.24-0.406c-0.689-1.183-1.366-2.509-2.011-3.941
				c-3.86-8.562-6.593-20.61-7.499-33.057c-0.344-4.725-0.411-9.334-0.199-13.699c0.252-5.189,0.905-9.912,1.94-14.036
				c0.396-1.578,0.862-3.104,1.386-4.535l0.383-1.002c0.646-1.619,1.386-3.111,2.197-4.436c1.241-2.025,2.638-3.645,4.152-4.815
				c7.51-5.803,15.384-12.023,23.404-18.487c2.106-1.698,4.206-3.396,6.288-5.09l1.637-1.34c2.664-2.174,5.302-4.341,7.922-6.505
				c2.22-1.833,4.424-3.66,6.61-5.482l1.59-1.327c1.598-1.334,3.191-2.667,4.771-3.993c8.503-7.143,17.369-14.7,27.104-23.105
				c1.677-1.448,3.348-2.892,4.995-4.318c8.096-7.016,15.822-13.766,23.105-20.131c34.29-29.965,61.374-53.634,68.992-53.634
				c0.425,0,0.751,0.085,0.969,0.254c0.877,0.681,2.614,5.135-11.875,33.859c-13.599,26.96-32.127,39.798-48.476,51.126
				c-16.148,11.19-30.095,20.854-35.111,40.919l-0.243,0.971l2.91,0.727l0.243-0.97c4.743-18.971,18.26-28.337,33.911-39.182
				c16.64-11.53,35.5-24.598,49.444-52.241c11.881-23.555,15.079-34.442,11.035-37.58c-0.712-0.553-1.616-0.833-2.687-0.833
				c-8.923,0-32.291,20.42-71.005,54.252l-0.082,0.072c-7.348,6.421-15.142,13.231-23.316,20.314L182.071,108.002z"/>
			<path fill="#FFFFFF" d="M243.015,105.544l-0.811,0.584l1.754,2.434l0.812-0.585c7.544-5.439,14.979-11.34,21.539-16.547
				c5.45-4.325,14.136-11.219,17.32-12.911c-0.557,1.372-2.133,4.453-6.579,11.127c-5.87,8.812-15.475,22.105-30.227,41.836
				c-1.873,2.504-5.89,4.414-10.541,6.625c-4.555,2.166-9.717,4.62-14.754,8.343c-11.146,8.234-17.832,20.317-20.439,36.938
				l-0.155,0.988l2.965,0.463l0.154-0.987c0.053-0.337,0.112-0.665,0.17-0.991l0.082-0.462c2.487-14.219,8.136-24.746,17.271-32.18
				c5.314-4.325,10.988-7.022,15.995-9.403c5.011-2.382,9.339-4.44,11.655-7.539c16.913-22.621,27.72-37.707,33.039-46.119
				c5.046-7.98,5.299-10.092,3.979-11.375c-0.274-0.267-0.762-0.585-1.523-0.585c-2.547,0-7.583,3.807-20.293,13.895
				C257.896,94.278,250.494,100.152,243.015,105.544z"/>
			<path fill="#FFFFFF" d="M283.599,105.289c-0.17-0.155-0.569-0.517-1.272-0.517c-1.252,0-3.856,0-29.578,25.722l-0.707,0.707
				l2.121,2.121l0.707-0.707c15.607-15.607,22.418-21.413,25.338-23.565c-2.533,4.447-11.302,17.315-41.602,53.778
				c-0.967,1.163-1.93,4.406-4.436,13.382c-3.184,11.402-7.544,27.018-13.108,38.145c-1.479,2.958-6.375,6.254-14.157,9.533
				l-0.1,0.042c-5.584,2.344-10.903,3.948-12.4,4.383l-0.477,0.138l-0.993,0.249l0.537,1.952l0.29,0.96l1.401-0.393
				c1.603-0.459,7.292-2.152,13.303-4.715c8.333-3.562,13.474-7.199,15.279-10.808c5.695-11.39,10.099-27.165,13.318-38.697
				c1.576-5.644,3.206-11.48,3.849-12.254C287.423,108.776,285.122,106.678,283.599,105.289z"/>
		</g>
		<path fill="#FFFFFF" d="M282.926,106.029c-0.729-0.663-2.25-2.049-29.47,25.172l0.354,0.354l0.354,0.354
			c22.887-22.888,27.245-25.087,28.066-25.112c0.074,0.961-2.287,7.853-42.854,56.67c-0.876,1.054-2.057,5.186-4.241,13.009
			c-3.195,11.442-7.57,27.112-13.177,38.326c-1.928,3.855-8.434,7.383-14.666,10.009c-0.033,0.014-0.065,0.027-0.098,0.041
			c-5.568,2.338-10.884,3.949-12.508,4.422c0,0,0,0,0,0c-0.306,0.089-0.494,0.143-0.513,0.147l0.133,0.482l0.133,0.482
			c0.063-0.018,0.218-0.061,0.451-0.128c1.647-0.472,7.275-2.153,13.109-4.641c0.025-0.011,0.05-0.021,0.076-0.032
			c6.268-2.68,12.753-6.288,14.778-10.336c5.65-11.3,10.041-27.023,13.246-38.505c1.825-6.536,3.267-11.699,4.047-12.639
			C286.043,108.872,283.697,106.732,282.926,106.029z"/>
	</g>
</g>
</svg>
