<?xml version="1.0" encoding="utf-8"?>
<!-- Generator: Adobe Illustrator 16.0.4, SVG Export Plug-In . SVG Version: 6.00 Build 0)  -->
<!DOCTYPE svg PUBLIC "-//W3C//DTD SVG 1.1//EN" "http://www.w3.org/Graphics/SVG/1.1/DTD/svg11.dtd">
<svg version="1.1" xmlns="http://www.w3.org/2000/svg" xmlns:xlink="http://www.w3.org/1999/xlink" x="0px" y="0px"
	 width="290.909px" height="327.274px" viewBox="0 0 290.909 327.274" enable-background="new 0 0 290.909 327.274"
	 xml:space="preserve">
<g id="Layer_1" display="none">
	<g display="inline">
		<path fill="#FFFFFF" d="M381.09,179.271c-1.059,2.028-1.298,5.32-1.898,15.422c-0.656,11.019-1.646,27.67-4.651,39.397
			c-0.996,3.891-11.24,11.565-20.63,16.665c-0.447-1.216-0.991-2.427-1.658-3.628c-7.691-13.865-28.751-23.335-43.598-23.481
			c-13.953-0.136-23.021,3.721-26.95,11.468c-7.496,14.783,8.277,36.593,10.1,39.032l8.011-5.984
			c-3.653-4.904-13.183-20.672-9.189-28.53c2.575-5.067,11.171-6.052,17.931-5.985c11.763,0.115,29.208,7.979,34.951,18.332
			c2.445,4.409,2.343,8.665-0.312,13.014c-5.676,9.297-18.97,21.105-33.08,29.387c-14.539,8.533-27.081,11.719-32.732,8.315
			c-7.939-4.783-19.584-26.817-23.285-49.147c-2.107-12.718-1.027-22.73,2.966-27.469c33.032-39.209,62.493-78.8,86.166-110.613
			c14.147-19.012,26.366-35.432,35.944-47.184c8.958-10.991,13.705-15.459,16.124-17.271c0.071,3.506-0.794,11.606-5.61,30.133
			c-7.374,28.365-22.449,44.482-35.749,58.702c-13.326,14.247-25.912,27.704-26.619,49.693l9.995,0.322
			c0.585-18.228,10.886-29.241,23.927-43.184c5.802-6.203,11.92-12.749,17.673-20.444l2.314,2.085
			c6.277-6.967,12.326-14.341,17.664-20.846c0.729-0.889,1.473-1.795,2.216-2.699c-4.095,9.908-10.335,24.028-18.69,42.287
			c-0.94,2.056-4.301,4.646-7.858,7.388c-11.184,8.62-28.083,21.646-26.191,54.666l9.983-0.572
			c-0.708-12.361,1.475-22.349,6.676-30.534c4.467-7.03,10.401-11.604,15.637-15.64c4.763-3.671,8.876-6.841,10.846-11.146
			c0.566-1.238,1.118-2.446,1.663-3.64l3.05,1.966C392.337,157.428,387.386,167.19,381.09,179.271z"/>
		<path fill="#FFFFFF" stroke="#000000" stroke-miterlimit="10" d="M295.81,271.152c0,0-32.111-42.946,12.797-42.506
			c19.292,0.189,51.348,18.496,38.857,38.951c-12.49,20.456-56.134,49.335-72.66,39.379s-27.625-62.13-12.821-79.703
			C362.305,108.193,420.843-18.832,394.527,82.401c-15.144,58.259-56.023,71.771-57.337,112.641"/>
		<path fill="#FFFFFF" stroke="#000000" stroke-miterlimit="10" d="M377.686,128.926c21.488-35.537,53.719-67.769,9.281,20.214
			c-5.501,10.891-36.044,17.092-33.604,59.687"/>
	</g>
	<g display="inline">
		<path fill="#FFFFFF" stroke="#000000" stroke-miterlimit="10" d="M419.874,270.353c-7.602,4.725-14.977,6.326-15.555,6.446
			l-0.959-4.637c-0.51,4.773-2.637,9.208-6.35,13.106c-8.681,9.115-25.425,18.669-42.657,24.338
			c-6.7,2.205-16.487,4.78-25.625,4.781c-6.961,0-13.544-1.494-18.104-5.786c-10.692-10.062-12.524-34.48-12.815-44.512
			c-0.453-15.578,1.577-36.486,8.63-48.445c7.453-12.638,15.341-24.053,23.392-34.359"/>
		<path fill="#FFFFFF" d="M223.097,368.771l-1.707-4.216c-16.224-40.082-15.198-86.908,2.745-125.259
			c14.371-30.717,38.566-52.866,68.128-62.368c11.467-3.685,24.864-3.859,38.741-0.503l-2.351,9.72
			c-12.09-2.924-23.616-2.819-33.33,0.304c-26.886,8.642-48.951,28.915-62.131,57.085c-16.159,34.538-17.641,76.451-4.17,113.033
			l195.73-58.402c-2.798-9.026-5.978-17.698-9.473-25.838l9.188-3.946c4.266,9.934,8.073,20.615,11.315,31.745l1.39,4.77
			L223.097,368.771z"/>
		<path fill="#FFFFFF" stroke="#000000" stroke-miterlimit="10" d="M335.537,190.083c-8.264-12.396-31.605-11.654-41.744-8.395
			c-69.421,22.313-95.868,111.57-67.769,180.991l204.958-61.156c-3.285-11.277-7.02-21.646-11.109-31.17"/>
	</g>
	<g display="inline">
		<path fill="#FFFFFF" d="M482.644,147.949c3.568-4.998,6.484-9.199,8.815-12.698c6.722-10.089,10.324-15.992,6.224-19.976
			c-3.878-3.766-9.053-0.095-12.831,2.585c-2.305,1.635-5.051,3.746-8.142,6.174c2.17-3.413,4.268-7.074,6.267-11.037
			c15.154-30.042,15.226-37.911,10.056-41.921c-8.556-6.639-24.44,6.621-78.223,53.621c-29.758,26.005-66.792,58.369-107.123,89.53
			c-9.394,7.258-12.024,22.306-12.576,33.65c-1.032,21.211,4.605,50.459,15.512,60.724c4.56,4.292,11.143,5.786,18.104,5.786
			c9.137-0.001,18.924-2.576,25.625-4.78c17.232-5.67,33.976-15.224,42.657-24.339c3.724-3.91,5.854-8.359,6.355-13.148l1.271,4.603
			c0.256-0.071,6.364-1.767,13.078-4.538c9.922-4.095,15.863-8.323,18.164-12.923c5.844-11.687,10.301-27.652,13.556-39.31
			c1.287-4.608,2.738-9.808,3.392-11.235c14.364-17.291,25.431-31.129,32.895-41.134c9.638-12.918,13.71-18.801,9.238-22.878
			C491.361,141.421,487.139,144.174,482.644,147.949z M444.915,202.59c-1.462,1.759-2.392,4.926-5.113,14.673
			c-2.968,10.631-7.454,26.698-12.868,37.526c-1.796,3.592-13.43,8.929-23.686,11.931c-0.18-1.283-0.456-2.581-0.854-3.896
			c-4.588-15.177-23.173-28.883-37.653-32.161c-13.61-3.081-23.289-1.226-28.765,5.516c-10.45,12.866,0.359,37.516,1.626,40.285
			l9.095-4.157c-2.535-5.565-8.519-22.99-2.955-29.828c3.587-4.409,12.198-3.555,18.791-2.062
			c11.473,2.598,26.863,13.97,30.289,25.302c1.458,4.826,0.46,8.965-3.054,12.654c-7.512,7.888-23,16.622-38.542,21.735
			c-16.014,5.27-28.945,5.733-33.75,1.213c-6.75-6.353-13.477-30.35-12.377-52.957c0.627-12.876,3.798-22.435,8.702-26.223
			c40.569-31.346,77.729-63.82,107.588-89.914c17.845-15.594,33.256-29.062,45.101-38.526c11.077-8.851,16.661-12.216,19.408-13.475
			c-0.672,3.442-3.229,11.176-11.85,28.268c-13.199,26.167-31.339,38.736-47.342,49.825c-16.035,11.11-31.18,21.605-36.516,42.948
			l9.701,2.426c4.423-17.693,16.818-26.281,32.51-37.154c6.981-4.837,14.344-9.942,21.593-16.25l1.822,2.527
			c7.607-5.484,15.077-11.413,21.669-16.644c0.9-0.715,1.818-1.443,2.736-2.17c-6.096,8.819-15.178,21.303-27.201,37.384
			c-1.354,1.811-5.185,3.632-9.241,5.561c-12.752,6.062-32.023,15.225-37.148,47.899l9.879,1.55
			c1.919-12.232,6.163-21.533,12.976-28.434c5.852-5.928,12.618-9.146,18.588-11.984c5.431-2.582,10.121-4.812,12.956-8.604
			c0.815-1.091,1.609-2.155,2.395-3.207l2.565,2.566C460.522,183.616,453.621,192.113,444.915,202.59z"/>
		<path fill="#FFFFFF" stroke="#000000" stroke-miterlimit="10" d="M342.149,274.382c0,0-22.314-48.761,21.488-38.843
			c18.817,4.26,46.281,28.925,29.752,46.281S328.1,318.183,314.05,304.96s-21.488-72.729-3.306-86.777
			c123.213-95.2,214.876-200.828,167.769-107.438c-27.11,53.745-73.554,52.065-83.471,91.734"/>
		<path fill="#FFFFFF" stroke="#000000" stroke-miterlimit="10" d="M452.893,148.761c35.536-25.62,70.248-62.81,4.132,25.62
			c-7.307,9.772-38.843,9.092-45.455,51.241"/>
		<path fill="#FFFFFF" stroke="#000000" stroke-miterlimit="10" d="M462.81,173.554c45.454-45.456,34.711-26.446-14.049,32.231
			c-2.241,2.697-8.293,33.118-17.355,51.24c-4.132,8.264-28.1,14.877-28.1,14.877"/>
	</g>
	
		<ellipse transform="matrix(-0.8109 -0.5851 0.5851 -0.8109 323.5128 538.6827)" display="inline" fill="#FFFFFF" stroke="#000000" stroke-miterlimit="10" cx="248.785" cy="217.075" rx="5.372" ry="9.505"/>
	
		<ellipse transform="matrix(-0.8795 -0.4759 0.4759 -0.8795 319.9662 567.1643)" display="inline" fill="#FFFFFF" stroke="#000000" stroke-miterlimit="10" cx="231.785" cy="243.075" rx="5.372" ry="9.505"/>
	
		<ellipse transform="matrix(-0.9519 -0.3064 0.3064 -0.9519 351.4748 599.332)" display="inline" fill="#FFFFFF" stroke="#000000" stroke-miterlimit="10" cx="222.785" cy="272.075" rx="5.372" ry="9.505"/>
	
		<ellipse transform="matrix(-0.9947 -0.1033 0.1033 -0.9947 409.4057 621.3428)" display="inline" fill="#FFFFFF" stroke="#000000" stroke-miterlimit="10" cx="220.785" cy="300.075" rx="5.372" ry="9.505"/>
	
		<ellipse transform="matrix(-0.9887 0.1501 -0.1501 -0.9887 490.8889 627.1104)" display="inline" fill="#FFFFFF" stroke="#000000" stroke-miterlimit="10" cx="221.785" cy="332.075" rx="5.372" ry="9.505"/>
	
		<ellipse transform="matrix(-0.6273 -0.7788 0.7788 -0.6273 285.5546 530.8024)" display="inline" fill="#FFFFFF" stroke="#000000" stroke-miterlimit="10" cx="269.785" cy="197.075" rx="5.372" ry="9.505"/>
	
		<ellipse transform="matrix(-0.2948 -0.9556 0.9556 -0.2948 203.5515 520.3666)" display="inline" fill="#FFFFFF" stroke="#000000" stroke-miterlimit="10" cx="293.785" cy="185.075" rx="5.372" ry="9.504"/>
	
		<ellipse transform="matrix(0.0434 -0.9991 0.9991 0.0434 122.0047 495.5699)" display="inline" fill="#FFFFFF" stroke="#000000" stroke-miterlimit="10" cx="319.785" cy="184.075" rx="5.372" ry="9.504"/>
	
		<line display="inline" fill="none" stroke="#000000" stroke-miterlimit="10" x1="220.661" y1="347.934" x2="424.793" y2="286.778"/>
</g>
<g id="Layer_2">
	<g>
		<path fill="#FFFFFF" d="M126.486,143.465l-1.759-1.526l0.476-1.803c1.776-6.729,4.69-13.162,9.173-20.244
			c3.859-6.098,8.372-11.895,13.149-18.032c12.073-15.506,25.756-33.082,33.125-61.429c5.137-19.763,6.226-27.931,6.246-31.304
			c-2.25,2.034-6.77,7.212-15.836,19.9c-5.771,8.077-12.413,17.779-19.446,28.051c-15.065,22.005-33.814,49.391-55.503,78.377
			l-0.811,1.084l-1.986,0.162l-7.442,0.75l4.098-5.469c21.844-29.156,40.711-56.713,55.87-78.856
			c3.358-4.906,6.462-9.432,9.342-13.607C176.791,8.199,182.982,1,188.312,1c0.727,0,1.421,0.148,2.066,0.443
			c4.721,2.149,5.415,8.544-2.958,40.75c-7.73,29.743-21.886,47.923-34.374,63.964c-2.007,2.579-4.082,5.243-6.067,7.893
			c-6.23,8.313-12.376,17.504-15.135,28.366l-1.294,5.089C130.551,147.504,126.546,143.521,126.486,143.465z"/>
		<path fill="#FFFFFF" d="M95.937,133.88c21.824-29.167,40.635-56.643,55.909-78.953c7.214-10.537,13.88-20.269,19.65-28.344
			c10.306-14.423,17.745-23.544,20.274-22.397c3.804,1.732-2.982,27.839-5.212,36.418c-7.589,29.197-21.595,47.187-33.952,63.058
			c-4.773,6.13-9.293,11.941-13.095,17.948c-3.882,6.135-7.01,12.477-8.883,19.574c0.141,0.123,0.288,0.24,0.424,0.366
			c0.146,0.135,0.279,0.278,0.419,0.417c2.805-11.039,8.705-20.243,15.777-29.681c1.974-2.635,4.038-5.288,6.153-8.004
			c12.417-15.949,26.491-34.026,34.133-63.424c8.112-31.206,7.031-36.508,4.655-37.59c-3.924-1.789-12.983,10.162-31.756,37.373
			c-2.904,4.209-6.032,8.771-9.418,13.716c-15.395,22.486-34.386,50.224-56.43,79.645c0.224-0.022,0.448-0.044,0.675-0.065
			C95.483,133.917,95.71,133.899,95.937,133.88z"/>
		<path fill="#FFFFFF" d="M173.022,106.992l0.02-0.03c0.11-0.173,0.226-0.344,0.314-0.52c15.87-31.42,20.315-44.402,21.505-49.593
			c-4.562,4.104-13.423,14.613-23.23,30.436c-0.479,0.773-0.956,1.55-1.433,2.339l-1.553,2.567l-5.986-3.622l1.55-2.565
			c0.272-0.45,0.55-0.905,0.831-1.361c2.304-3.747,22.782-36.613,32.254-36.613c0.829,0,1.599,0.194,2.291,0.579
			c3.712,2.055,3.468,7.445-0.873,19.225c-3.45,9.362-9.631,22.919-18.372,40.295l-0.268,0.532l-2.561,2.213L173.022,106.992z"/>
		<path fill="#FFFFFF" d="M170.461,86.022c-0.279,0.454-0.556,0.907-0.827,1.354l0.432,0.261l0.431,0.261
			c0.487-0.805,0.975-1.599,1.463-2.387c12.866-20.759,26.083-35.405,28.812-33.894c1.205,0.667,3.192,6.689-21.8,56.172
			c-0.139,0.275-0.313,0.546-0.486,0.818c0.379-0.328,0.751-0.65,1.129-0.977c0.334-0.288,0.666-0.575,0.999-0.862
			c17.611-35.007,24.562-53.864,20.646-56.033C196.763,48.24,180.793,69.215,170.461,86.022z"/>
		<path fill="#FFFFFF" d="M12.372,322.764c-3.09-7.634-5.598-15.688-7.458-23.944c-1.137-1.896-1.931-4.173-2.303-6.625
			c-0.308-2.022-0.306-4.055,0.003-5.915c-2.354-16.535-2.131-33.177,0.659-49.481c-0.526-2.594-0.291-5.654,0.664-8.622
			c0.537-1.667,1.3-3.266,2.219-4.659c1.454-5.516,3.222-10.951,5.262-16.175c-0.377-2.925,0.387-6.382,2.157-9.654
			c1.327-2.452,3.106-4.541,5.069-5.964c2.89-5.331,6.137-10.429,9.663-15.173c0.552-1.975,1.536-3.975,2.868-5.82
			c1.947-2.699,4.476-4.792,7.035-5.848c3.332-3.442,6.866-6.661,10.522-9.583c1.029-2.252,2.799-4.455,5.062-6.276
			c3.056-2.461,6.587-3.873,9.69-3.873c0.14,0,0.279,0.003,0.419,0.01c2.735-1.507,5.56-2.901,8.416-4.155
			c1.763-2.428,4.766-4.419,8.411-5.543c1.225-0.378,2.503-0.638,3.796-0.77c0.678-0.069,1.24-0.102,1.771-0.102
			c1.294,0,2.548,0.167,3.726,0.494l0.106,0.028c0.203,0.052,0.405,0.108,0.593,0.174c0.119,0.041,0.237,0.088,0.354,0.137
			c2.42-0.282,4.894-0.425,7.367-0.425c1.377,0,2.751,0.045,4.095,0.135c1.86-0.707,4-1.078,6.244-1.078
			c0.312,0,0.625,0.007,0.943,0.021c4.117,0.179,7.807,1.542,10.114,3.739c0.305,0.29,0.593,0.609,0.88,0.974
			c0.174,0.222,0.335,0.441,0.479,0.665c0.163,0.255,0.308,0.521,0.437,0.788c0.117,0.244,0.22,0.493,0.307,0.746
			c2.474,1.681,4.504,3.699,6.046,6.012l1.664,2.495l-5.821,3.88l-1.663-2.493c-0.065-0.097-0.137-0.189-0.207-0.282l-0.141-0.189
			c-0.528-0.718-1.14-1.397-1.834-2.032c-0.416,0.398-0.883,0.769-1.4,1.11c-1.141,0.751-2.488,1.333-4.003,1.731
			c-0.167,0.047-0.274,0.076-0.384,0.102c-0.126,0.03-0.517,0.108-0.517,0.108c-0.29,0.059-0.57,0.11-0.857,0.154
			c-0.987,0.152-1.992,0.229-2.986,0.229c-0.294,0-0.593-0.006-0.892-0.02c-4.471-0.194-8.466-1.814-10.685-4.333
			c-1.332-1.512-1.992-3.271-1.914-5.088c0.005-0.107,0.012-0.214,0.021-0.32c-0.102,0.003-0.203,0.006-0.304,0.01
			c0.004,1.335-0.389,2.693-1.168,4.008c-1.65,2.785-4.908,5.094-8.936,6.337c-1.543,0.476-3.13,0.759-4.714,0.838l-0.128,0.007
			c-0.193,0.01-0.387,0.021-0.577,0.023l-0.147,0.003c-0.192,0-0.375-0.01-0.558-0.022l-0.137-0.008
			c-2.075-0.091-3.955-0.597-5.435-1.461c-0.249-0.146-0.449-0.267-0.633-0.398c-0.901-0.638-1.621-1.419-2.128-2.301
			c-0.33,0.161-0.66,0.324-0.986,0.488c0.377,0.981,0.534,2.067,0.461,3.217c-0.216,3.405-2.481,7.159-6.058,10.041
			c-3.055,2.461-6.587,3.874-9.691,3.874c-1.501,0-2.871-0.347-4.071-1.031c-0.794-0.453-1.423-0.974-1.922-1.592
			c-0.011-0.014-0.021-0.027-0.031-0.04c-0.789,0.694-1.565,1.4-2.33,2.117c0.608,0.634,1.092,1.396,1.445,2.273
			c1.409,3.504,0.351,8.36-2.761,12.672c-2.951,4.09-7.049,6.63-10.697,6.63c-1.048,0-2.046-0.211-2.964-0.629
			c-0.427-0.193-0.8-0.407-1.139-0.653c-0.191-0.138-0.374-0.286-0.548-0.441c-0.948,1.437-1.871,2.904-2.766,4.397
			c0.04,0.021,0.08,0.042,0.12,0.064c0.672,0.363,1.284,0.851,1.815,1.448c2.783,3.124,2.701,8.832-0.205,14.202
			c-2.382,4.401-6.093,7.443-9.685,7.938c-0.381,0.053-0.728,0.079-1.056,0.079c-0.686,0-1.346-0.094-1.975-0.28
			c-0.514,1.446-1.006,2.904-1.475,4.37c0.473,0.046,0.937,0.143,1.385,0.288l0.164,0.053l0.148,0.066
			c4.622,1.71,6.384,8.001,4.14,14.969c-1.662,5.164-5.165,9.014-8.924,9.809c-0.522,0.111-1,0.165-1.46,0.165
			c-0.37,0-0.736-0.03-1.095-0.089c-0.121,0.91-0.234,1.822-0.338,2.736c0.18-0.057,0.362-0.106,0.546-0.147
			c0.484-0.111,0.987-0.167,1.486-0.167c0.228,0,0.456,0.012,0.686,0.035c2.647,0.275,4.932,2.117,6.269,5.052
			c1.116,2.45,1.546,5.147,1.212,8.367c-0.724,6.981-4.711,11.624-9.481,11.624H9.618l-0.186,0.415
			c-0.153-0.007-0.268,0.199-0.383,0.188c-0.283-0.03-0.563,0.03-0.837-0.035c0.114,2.167,0.275,4.388,0.48,6.551
			c0.24-0.064,0.484-0.561,0.734-0.599c0.323-0.05,0.662-0.521,1.001-0.521h0.101c4.64,0,8.592,5.316,9.617,12.066
			c0.677,4.465-0.146,8.788-2.096,11.433l102.087-30.467l0.37,0.042c1.508-0.069,3.073-0.175,4.649-0.372l1.234,5.863
			L14.874,308.976c0.87,2.786,1.814,5.53,2.825,8.201l198.424-59.206c-2.828-9.288-6.069-18.244-9.648-26.66l-1.159-2.724
			l3.59-1.587l2.797-1.272l1.202,2.828c4.121,9.682,7.797,20.042,10.928,30.792l0.974,3.333l-3.329,0.997L13.564,325.716
			L12.372,322.764z M10.495,284.984c-0.21,0.225-0.625,0.849-0.891,2.09c-0.083,0.386-0.144,0.794-0.179,1.215
			c-0.079,0.93-0.044,1.892,0.102,2.857c0.187,1.227,0.548,2.416,1.044,3.435c0.18,0.37,0.372,0.707,0.573,1.004
			c0.482,0.712,0.896,1.038,1.111,1.158c0.563-0.562,1.478-2.826,0.972-6.159C12.715,287.201,11.154,285.304,10.495,284.984z
			 M10.993,252.965c-0.685,0.406-2.126,2.35-2.476,5.721c-0.35,3.38,0.706,5.644,1.267,6.126c0.544-0.287,2.097-2.289,2.455-5.74
			C12.586,255.73,11.558,253.481,10.993,252.965z M14.193,225.234c-0.315,0.116-1.051,0.548-1.932,1.754
			c-0.215,0.294-0.421,0.613-0.612,0.946c-0.356,0.619-0.666,1.297-0.922,2.017l-0.131,0.372c-0.307,0.955-0.5,1.919-0.57,2.863
			c-0.045,0.598-0.023,1.196,0.066,1.829c0.017,0.122,0.029,0.242,0.041,0.363l0.011,0.106c0.017,0.072,0.049,0.205,0.087,0.332
			c0.111,0.379,0.235,0.612,0.319,0.735c0.929-0.319,2.646-2.09,3.609-5.085C15.191,228.257,14.64,225.84,14.193,225.234z
			 M24.191,196.679c-0.167,0.027-0.49,0.118-0.976,0.406c-0.198,0.117-0.396,0.252-0.593,0.404c-0.248,0.19-0.496,0.406-0.741,0.643
			c-0.815,0.79-1.56,1.789-2.153,2.886c-0.835,1.542-1.334,3.241-1.372,4.661c-0.007,0.265,0.003,0.518,0.03,0.75
			c0.028,0.234,0.061,0.383,0.084,0.467c0.028,0.103,0.057,0.182,0.081,0.239c0.045-0.008,0.1-0.021,0.168-0.039
			c1.115-0.305,2.937-1.78,4.299-4.298C24.525,200.013,24.581,197.481,24.191,196.679z M41.835,171.098
			c-0.071,0.005-0.241,0.028-0.554,0.121c-0.258,0.077-0.495,0.169-0.725,0.282c-0.307,0.151-0.632,0.346-0.964,0.577
			c-1.006,0.702-1.956,1.652-2.747,2.747c-0.386,0.536-0.737,1.115-1.04,1.718c-0.229,0.455-0.418,0.9-0.565,1.322
			c-0.116,0.336-0.212,0.678-0.285,1.015c-0.212,0.986-0.143,1.596-0.066,1.862c0.985-0.025,3.156-1.186,4.991-3.729
			c1.88-2.605,2.2-4.995,1.96-5.889C41.84,171.116,41.838,171.107,41.835,171.098z M54.733,159.657
			c0.129,0.033,0.293,0.056,0.494,0.056c1.467,0,3.548-0.913,5.302-2.326c2.144-1.728,3.169-3.635,3.396-4.744
			c0.04-0.194,0.051-0.342,0.05-0.442c-0.098-0.023-0.205-0.04-0.309-0.046c-0.061-0.004-0.124-0.006-0.183-0.006
			c-0.098,0-0.2,0.013-0.302,0.022c-1.522,0.134-3.375,0.994-5,2.303c-1.042,0.839-1.932,1.826-2.572,2.852
			c-0.148,0.237-0.283,0.476-0.398,0.711c-0.115,0.235-0.211,0.463-0.286,0.68C54.762,159.186,54.732,159.492,54.733,159.657z
			 M77.917,145.83c0.363,0.18,1.137,0.454,2.473,0.454l0.149-0.007c0.164-0.003,0.332-0.011,0.501-0.021
			c0.176-0.012,0.354-0.031,0.533-0.051c0.804-0.092,1.583-0.253,2.321-0.48c2.465-0.76,4.092-2.043,4.793-2.989
			c0.176-0.237,0.272-0.424,0.323-0.547c-0.031-0.021-0.067-0.045-0.111-0.071c-0.103-0.061-0.223-0.118-0.359-0.171
			c-0.111-0.042-0.203-0.079-0.302-0.108c-0.098-0.03-0.204-0.055-0.313-0.079l-0.107-0.024c-0.454-0.095-0.975-0.146-1.523-0.146
			c-0.563,0-1.182,0.056-1.838,0.168c-0.582,0.099-1.142,0.231-1.667,0.393c-1.796,0.554-3.406,1.48-4.415,2.541
			c-0.157,0.165-0.296,0.331-0.416,0.496c-0.083,0.115-0.156,0.231-0.216,0.349c-0.031,0.06-0.052,0.11-0.069,0.152
			c0.041,0.028,0.094,0.063,0.163,0.1L77.917,145.83z M103.394,142.666c0.098,0.138,0.317,0.384,0.77,0.688
			c1.228,0.824,3.129,1.367,5.085,1.451c0.178,0.007,0.36,0.011,0.541,0.011c0.342,0,0.679-0.013,1.008-0.039
			c0.602-0.044,1.191-0.134,1.754-0.266c0.2-0.047,0.395-0.099,0.584-0.156c0.213-0.064,0.419-0.133,0.614-0.209
			c0.684-0.269,1.092-0.553,1.313-0.744c0.095-0.083,0.159-0.151,0.2-0.202c-0.814-1.004-3.043-2.013-5.852-2.135
			c-0.194-0.008-0.391-0.012-0.586-0.012c-0.939,0-1.845,0.099-2.69,0.294c-0.35,0.081-0.678,0.175-0.974,0.279
			c-0.257,0.092-0.495,0.195-0.721,0.305C103.845,142.224,103.529,142.505,103.394,142.666z"/>
		<path fill="#FFFFFF" d="M213.381,230.784c-0.151,0.069-0.305,0.137-0.459,0.206s-0.303,0.138-0.46,0.207
			c4.018,9.446,7.622,19.566,10.713,30.11L17.46,322.688c-1.838-4.582-3.437-9.256-4.813-13.993l4.344-1.301l108.445-32.488
			l2.594-0.778c-1.639,0.205-3.287,0.349-4.927,0.424l-1.861,0.558L16.708,306.427l-4.347,1.302
			c-0.63-2.224-1.204-4.464-1.733-6.714c0.991,0.917,2.099,1.446,3.231,1.446c0,0,0,0,0,0c0.182,0,0.362-0.014,0.544-0.042
			c0.403-0.061,0.784-0.188,1.143-0.372c2.565-1.311,3.941-5.582,3.196-10.488c-0.784-5.163-3.681-9.073-6.754-9.125
			c-0.203-0.003-0.408,0.01-0.612,0.042c-1.538,0.234-2.768,1.413-3.559,3.168c-0.88-6.683-1.336-13.414-1.359-20.137
			c0.791,2.671,2.366,4.501,4.382,4.711c0.079,0.008,0.157,0.009,0.235,0.013c0.046,0.002,0.093,0.007,0.138,0.007c0,0,0,0,0,0
			c3.179,0,5.997-4.059,6.555-9.441c0.584-5.625-1.545-10.3-4.848-10.643c-0.411-0.042-0.817-0.016-1.214,0.075
			c-2.11,0.477-3.976,2.741-4.995,5.905c0.312-5.544,0.917-11.062,1.813-16.519c0.568,0.969,1.341,1.64,2.281,1.943
			c0.362,0.117,0.742,0.175,1.13,0.175h0c0.28,0,0.563-0.04,0.847-0.1c2.668-0.564,5.406-3.691,6.749-7.862
			c1.709-5.311,0.641-10.255-2.423-11.364c-0.041-0.016-0.08-0.037-0.122-0.051c-0.361-0.117-0.742-0.175-1.13-0.175
			c-1.313,0-2.683,0.685-3.929,1.854c1.314-4.782,2.868-9.486,4.655-14.089c0.381,0.708,0.907,1.277,1.588,1.646
			c0.549,0.297,1.166,0.448,1.832,0.448h0c0.214,0,0.432-0.021,0.651-0.051c2.633-0.363,5.58-2.861,7.522-6.451
			c2.334-4.313,2.506-8.743,0.607-10.875c-0.291-0.327-0.626-0.604-1.015-0.813c-0.55-0.298-1.167-0.449-1.833-0.449
			c-0.596,0-1.214,0.126-1.84,0.353c2.553-4.649,5.35-9.065,8.378-13.225c-0.03,1.796,0.535,3.293,1.733,4.159
			c0.196,0.142,0.408,0.256,0.627,0.355c0.52,0.236,1.099,0.363,1.738,0.363c0,0,0,0,0,0c2.683,0,5.955-2.132,8.336-5.434
			c2.565-3.553,3.423-7.417,2.432-9.884c-0.288-0.717-0.725-1.322-1.331-1.759c-0.66-0.477-1.457-0.719-2.365-0.719
			c-0.09,0-0.185,0.021-0.276,0.026c2.946-3.001,6.041-5.804,9.265-8.41c-0.188,1.324,0.051,2.527,0.792,3.446
			c0.293,0.363,0.669,0.641,1.082,0.876c0.717,0.409,1.585,0.643,2.608,0.643c2.416,0,5.361-1.21,7.877-3.238
			c3.025-2.437,4.831-5.467,4.989-7.964c0.072-1.138-0.197-2.165-0.849-2.974c-0.35-0.434-0.805-0.76-1.323-1.011
			c2.611-1.438,5.287-2.756,8.017-3.959c-0.193,0.735-0.207,1.47,0.011,2.174c0.255,0.828,0.81,1.527,1.587,2.079
			c0.13,0.092,0.274,0.174,0.417,0.258c1.061,0.62,2.459,0.992,4.089,1.063c0.189,0.008,0.371,0.027,0.566,0.027c0,0,0,0,0,0
			c0.015,0,0.031-0.002,0.047-0.002c0.216-0.001,0.439-0.016,0.661-0.028c1.308-0.066,2.679-0.303,4.015-0.715
			c3.432-1.059,6.077-2.975,7.304-5.044c0.705-1.189,0.945-2.429,0.588-3.587c-0.192-0.624-0.568-1.167-1.066-1.639
			c3.022-0.327,6.313-0.431,9.636-0.246c-1.25,0.927-2.014,2.103-2.071,3.415c-0.046,1.081,0.387,2.103,1.178,3.002
			c1.638,1.86,4.833,3.184,8.642,3.349c0.257,0.011,0.513,0.017,0.766,0.017c0,0,0,0,0.001,0c0.89,0,1.742-0.071,2.551-0.196
			c0.243-0.037,0.48-0.081,0.713-0.128c0.148-0.03,0.298-0.057,0.442-0.091c0.107-0.025,0.207-0.057,0.312-0.084
			c1.21-0.317,2.274-0.776,3.14-1.346c1.215-0.802,2.036-1.818,2.308-2.966c1.986,1.26,3.707,2.792,5.056,4.627
			c0.145,0.196,0.294,0.387,0.43,0.59l0.419-0.279l0.404-0.27l0.015-0.01c-1.608-2.412-3.753-4.34-6.244-5.859
			c-0.045-0.456-0.17-0.899-0.375-1.325c-0.079-0.163-0.167-0.324-0.267-0.481c-0.092-0.145-0.199-0.285-0.308-0.425
			c-0.179-0.227-0.373-0.449-0.595-0.661c-1.727-1.644-4.73-2.788-8.254-2.94c-2.536-0.116-4.836,0.313-6.622,1.112
			c-4.359-0.347-8.694-0.17-12.496,0.327c-0.133-0.068-0.285-0.121-0.427-0.182c-0.16-0.069-0.311-0.146-0.482-0.205
			c-0.163-0.057-0.345-0.097-0.518-0.145c-0.877-0.244-1.86-0.388-2.946-0.388c-0.481,0-0.978,0.036-1.478,0.087
			c-1.071,0.11-2.17,0.326-3.246,0.658c-3.472,1.071-6.136,3.02-7.343,5.117c-3.382,1.449-6.679,3.078-9.882,4.881
			c-0.337-0.056-0.688-0.091-1.062-0.091c-2.416,0-5.36,1.21-7.876,3.238c-2.214,1.783-3.773,3.884-4.513,5.86
			c-4.007,3.155-7.811,6.621-11.398,10.371c-2.196,0.73-4.531,2.56-6.348,5.077c-1.303,1.806-2.16,3.691-2.566,5.435
			c-3.747,4.988-7.163,10.35-10.214,16.055c-1.773,1.121-3.488,3.008-4.766,5.371c-1.685,3.115-2.244,6.292-1.71,8.619
			c-2.232,5.618-4.111,11.389-5.639,17.27c-0.874,1.229-1.623,2.707-2.152,4.352c-0.81,2.518-1.017,5.071-0.58,7.192
			c0.034,0.165,0.078,0.316,0.119,0.473c-2.878,16.423-3.109,33.427-0.689,50.075c-0.326,1.616-0.376,3.482-0.077,5.454
			c0.354,2.326,1.138,4.393,2.172,5.972c1.829,8.244,4.316,16.346,7.488,24.183l0.172,0.426l207.075-61.788l0.48-0.144l-0.141-0.48
			C221.148,250.743,217.479,240.416,213.381,230.784z M7.906,289.595c0.047-0.56,0.127-1.096,0.236-1.605
			c0.531-2.478,1.761-4.271,3.385-4.518c0.13-0.02,0.261-0.029,0.392-0.029c0.064,0,0.127,0.012,0.191,0.017
			c2.499,0.175,4.95,3.73,5.636,8.251c0.634,4.182-0.461,8.048-2.453,9.308c-0.325,0.205-0.672,0.35-1.042,0.405
			c-0.131,0.02-0.262,0.029-0.393,0.029c-1.323,0-2.643-0.974-3.709-2.549c-0.285-0.42-0.549-0.883-0.793-1.383
			c-0.611-1.255-1.08-2.732-1.324-4.336C7.844,291.94,7.811,290.724,7.906,289.595z M6.996,259.679
			c0.428-4.125,2.395-7.576,4.607-8.366c0.312-0.111,0.628-0.17,0.946-0.17c0.089,0,0.179,0.005,0.269,0.014
			c2.648,0.276,4.457,4.642,3.949,9.536c-0.499,4.806-3.09,8.677-5.714,8.523c-0.036-0.002-0.072,0.004-0.107,0
			C8.297,268.94,6.489,264.573,6.996,259.679z M9.384,229.992c0.321-0.904,0.712-1.754,1.156-2.526
			c0.251-0.437,0.519-0.849,0.798-1.231c1.363-1.866,3.017-3.045,4.521-3.045c0.283,0,0.56,0.042,0.821,0.126
			c0.048,0.016,0.091,0.042,0.138,0.06c2.424,0.941,3.235,5.492,1.756,10.087c-1.151,3.576-3.435,6.387-5.614,7.089
			c-0.345,0.111-0.687,0.174-1.022,0.174c-0.283,0-0.56-0.042-0.821-0.126c-1.052-0.339-1.85-1.332-2.286-2.823
			c-0.061-0.206-0.114-0.42-0.161-0.645c-0.039-0.189-0.046-0.398-0.073-0.595c-0.111-0.788-0.154-1.619-0.088-2.495
			c0.088-1.163,0.323-2.377,0.713-3.59C9.273,230.296,9.329,230.145,9.384,229.992z M23.287,195.253
			c0.91-0.54,1.817-0.845,2.651-0.845c0.498,0,0.953,0.11,1.354,0.327c0.382,0.207,0.695,0.514,0.952,0.888
			c1.32,1.919,1.007,5.812-0.953,9.433c-1.624,3.001-4.042,5.224-6.2,5.814c-0.372,0.101-0.736,0.16-1.087,0.16
			c-0.497,0-0.952-0.11-1.352-0.326c-0.75-0.406-1.257-1.17-1.526-2.159c-0.078-0.286-0.132-0.593-0.17-0.913
			c-0.044-0.377-0.062-0.774-0.051-1.189c0.048-1.831,0.626-3.989,1.747-6.061c0.768-1.419,1.715-2.662,2.728-3.645
			c0.331-0.32,0.667-0.612,1.008-0.874C22.686,195.635,22.986,195.432,23.287,195.253z M34.828,175.779
			c0.363-0.723,0.794-1.445,1.299-2.146c1.026-1.422,2.247-2.612,3.493-3.481c0.455-0.317,0.911-0.59,1.365-0.814
			c0.409-0.202,0.81-0.353,1.206-0.471c0.503-0.15,0.996-0.249,1.457-0.249c0.692,0,1.29,0.178,1.775,0.527
			c0.551,0.398,0.919,1.001,1.118,1.743c0.58,2.164-0.302,5.521-2.446,8.493c-2.165,3.001-5.188,5.017-7.52,5.017
			c-0.417,0-0.796-0.073-1.141-0.201c-0.227-0.083-0.442-0.188-0.635-0.327c-1.23-0.889-1.559-2.796-1.082-5.01
			c0.097-0.449,0.224-0.91,0.387-1.378C34.298,176.919,34.542,176.349,34.828,175.779z M54.938,156.149
			c0.789-1.265,1.895-2.529,3.263-3.631c2.13-1.716,4.559-2.793,6.631-2.976c0.207-0.019,0.415-0.038,0.613-0.038
			c0.121,0,0.25,0.004,0.381,0.013c0.272,0.018,0.562,0.06,0.853,0.131c0.612,0.151,1.224,0.445,1.671,1
			c0.604,0.751,0.745,1.803,0.504,2.984c-0.424,2.081-2.047,4.566-4.492,6.536c-2.344,1.888-5.052,3.015-7.245,3.015
			c-0.529,0-1.169-0.073-1.764-0.318c-0.424-0.174-0.825-0.433-1.141-0.826c-0.753-0.935-0.79-2.335-0.258-3.874
			c0.117-0.337,0.261-0.681,0.432-1.028C54.547,156.81,54.732,156.48,54.938,156.149z M78.278,142.918
			c1.314-1.38,3.349-2.625,5.753-3.367c0.684-0.211,1.377-0.371,2.064-0.487c0.805-0.137,1.601-0.213,2.362-0.213
			c0.816,0,1.565,0.083,2.243,0.23c0.017,0.004,0.033,0.009,0.05,0.013c0.182,0.04,0.359,0.083,0.529,0.134
			c0.176,0.052,0.339,0.113,0.501,0.175c0.011,0.004,0.022,0.009,0.033,0.013c0.294,0.114,0.564,0.243,0.81,0.389
			c0.767,0.453,1.309,1.045,1.53,1.763c0.313,1.015-0.033,2.161-0.851,3.264c-1.232,1.665-3.548,3.234-6.375,4.106
			c-0.958,0.295-1.933,0.49-2.886,0.599c-0.231,0.026-0.46,0.05-0.688,0.065c-0.221,0.014-0.439,0.024-0.656,0.027
			c-0.064,0.001-0.131,0.008-0.195,0.008c0,0,0,0-0.001,0c-1.592,0-2.942-0.301-3.947-0.827c-0.027-0.015-0.053-0.031-0.08-0.046
			c-0.842-0.461-1.435-1.082-1.67-1.843c-0.236-0.764-0.096-1.602,0.333-2.441c0.126-0.248,0.278-0.495,0.455-0.74
			C77.792,143.463,78.02,143.188,78.278,142.918z M107.788,138.688c1.039-0.24,2.185-0.375,3.395-0.375
			c0.238,0,0.479,0.005,0.722,0.016c3.574,0.156,6.684,1.483,8.076,3.218c0.058,0.072,0.118,0.144,0.17,0.218
			c0.107,0.151,0.2,0.305,0.28,0.461c0.041,0.078,0.071,0.158,0.104,0.237c0.042,0.104,0.081,0.208,0.112,0.312
			c0.038,0.132,0.072,0.265,0.09,0.399c0.021,0.15,0.031,0.303,0.024,0.456c-0.002,0.057-0.017,0.112-0.023,0.168
			c-0.088,0.811-0.545,1.559-1.288,2.2c-0.578,0.498-1.32,0.931-2.195,1.275c-0.27,0.106-0.554,0.201-0.847,0.29
			c-0.251,0.076-0.51,0.145-0.777,0.208c-0.7,0.164-1.447,0.281-2.232,0.34c-0.621,0.047-1.262,0.061-1.92,0.033
			c-2.654-0.115-5.051-0.878-6.683-1.973c-1.39-0.932-2.227-2.104-2.173-3.328c0.058-1.333,1.129-2.512,2.806-3.334
			c0.329-0.162,0.677-0.312,1.051-0.443C106.891,138.92,107.33,138.794,107.788,138.688z"/>
		<path fill="#FFFFFF" d="M155.982,260.475c1.945-0.876,3.859-1.793,5.69-2.726l0.241-0.122l54.241-16.249l2.011,6.701
			l-60.091,18.003L155.982,260.475z"/>
		<path fill="#FFFFFF" d="M165.86,261.742c-1.912,0.973-3.873,1.911-5.87,2.811l3.339-1l50.876-15.243l3.498-1.048l-0.29-0.965
			l-3.543,1.062l-45.449,13.616L165.86,261.742z"/>
		<path fill="#FFFFFF" d="M118.365,270.994c-7.6,0-13.375-1.462-17.165-5.029c-1.412-1.329-2.794-2.913-4.108-5.047l-0.285-0.371
			l-0.26-0.409c-0.76-1.312-1.498-2.737-2.19-4.274c-3.925-8.691-6.79-20.795-7.857-33.227c-0.469-5.459-0.581-10.792-0.333-15.86
			c0.259-5.324,0.931-10.239,1.999-14.612c0.439-1.793,0.93-3.462,1.461-4.962l0.418-1.102c0.717-1.86,1.52-3.562,2.39-5.063
			c1.636-2.828,3.561-5.108,5.72-6.776c8.09-6.25,16.328-12.769,25.185-19.93c0,0,3.259-2.633,4.295-3.477l1.647-1.347
			c3.056-2.494,6.079-4.98,9.076-7.458c2.373-1.961,4.725-3.917,7.058-5.865l1.78-1.486c1.399-1.171,2.789-2.337,4.174-3.504
			c8.75-7.361,17.877-15.154,27.905-23.825l2.722-2.354c8.169-7.077,15.957-13.882,23.299-20.298l0.081-0.072
			c43.421-37.944,63.008-54.72,72.287-54.72c1.525,0,2.842,0.421,3.912,1.253c5.161,4.004,2.422,14.482-10.471,40.04
			c-14.165,28.083-33.238,41.298-50.066,52.958c-15.312,10.61-28.536,19.773-33.094,38.004l-0.727,2.908l-6.789-1.695l0.728-2.91
			c5.196-20.785,19.422-30.643,35.895-42.057c16.145-11.188,34.442-23.866,47.806-50.359c11.353-22.507,12.348-29.261,12.228-31.15
			c-7.82,1.188-36.678,26.405-67.186,53.066c-7.282,6.364-15.005,13.112-23.1,20.126c-1.647,1.427-3.317,2.871-4.995,4.318
			c-9.738,8.408-18.606,15.968-27.111,23.112c-1.58,1.328-3.174,2.661-4.773,3.996l-1.591,1.328
			c-2.188,1.823-4.393,3.651-6.614,5.485c-2.622,2.165-5.262,4.334-7.927,6.508l-1.638,1.341c-2.084,1.696-4.186,3.395-6.292,5.093
			c-8.028,6.47-15.909,12.696-23.425,18.503c-1.32,1.021-2.555,2.459-3.668,4.276c-0.751,1.227-1.439,2.617-2.043,4.13l-0.363,0.949
			c-0.499,1.363-0.944,2.821-1.322,4.33c-1.003,3.996-1.636,8.584-1.882,13.64c-0.208,4.282-0.142,8.808,0.196,13.45
			c0.876,12.037,3.614,24.135,7.324,32.365c0.617,1.368,1.261,2.631,1.915,3.754l0.227,0.383l0.24,0.389
			c0.982,1.578,1.971,2.842,2.94,3.754c2.425,2.282,6.682,3.489,12.313,3.488c18.59-0.001,49.328-13.119,62.056-26.483
			c3.917-4.113,5.029-8.73,3.401-14.116c-3.096-10.243-14.765-19.552-24.297-23.868c-0.664-0.3-1.322-0.577-1.978-0.836
			c-1.797-0.712-3.514-1.256-5.103-1.616c-3.628-0.82-6.889-1.237-9.694-1.237c-3.398,0-6.155,0.607-8.196,1.804
			c-0.965,0.566-1.747,1.227-2.39,2.018c-0.048,0.074-0.104,0.151-0.162,0.227c-0.069,0.091-0.429,0.6-0.429,0.6
			c-0.616,0.964-1.098,2.123-1.432,3.445c-1.775,7.021,0.998,16.815,2.808,22.027c0.776,2.235,1.453,3.878,1.788,4.659l0.184,0.419
			l1.23,2.72l-3.62,1.666l-2.729,1.249l-1.247-2.73c-0.182-0.401-1.011-2.253-2.014-5.034c-2.75-7.63-5.512-18.55-3.048-27.24
			c0.535-1.882,1.289-3.58,2.244-5.048c0.086-0.132,0.179-0.262,0.274-0.391l0.073-0.1c0.118-0.168,0.235-0.329,0.355-0.487
			c0.117-0.165,0.199-0.277,0.287-0.387c1.079-1.327,2.385-2.473,3.89-3.413c3.189-1.991,7.271-3,12.135-3
			c3.33,0,7.111,0.475,11.239,1.41c2.019,0.457,4.171,1.144,6.395,2.043c0.788,0.317,1.578,0.66,2.373,1.027
			c11.159,5.162,24.071,15.836,27.763,28.046c2.32,7.676,0.533,15.122-5.032,20.965c-8.521,8.946-25.014,17.994-42.02,23.59
			c-9.487,3.122-17.911,4.358-25.04,4.358H118.365z"/>
		<path fill="#FFFFFF" d="M184.22,109.648c-8.977,7.762-18.392,15.825-28.178,24.058c-1.4,1.178-2.804,2.356-4.218,3.54
			c-0.307,0.256-0.616,0.514-0.922,0.77c-0.291,0.243-0.583,0.486-0.874,0.73c-2.357,1.968-4.734,3.943-7.131,5.925
			c-3.028,2.504-6.082,5.015-9.168,7.534c-0.557,0.455-1.106,0.908-1.666,1.363c-1.437,1.169-2.891,2.341-4.34,3.513
			c-8.312,6.72-16.801,13.458-25.455,20.144c-1.895,1.464-3.565,3.474-5.002,5.958c-0.813,1.405-1.547,2.97-2.205,4.675
			c-0.065,0.169-0.132,0.336-0.196,0.509c-0.066,0.177-0.134,0.35-0.198,0.53c-0.521,1.471-0.979,3.05-1.386,4.715
			c-1.018,4.168-1.679,8.914-1.934,14.17c-0.249,5.108-0.118,10.386,0.329,15.598c1.051,12.239,3.859,24.106,7.668,32.541
			c0.661,1.465,1.353,2.823,2.071,4.064c0.08,0.139,0.16,0.282,0.24,0.418c0.087,0.146,0.177,0.283,0.265,0.426
			c1.157,1.877,2.375,3.455,3.642,4.648c3.26,3.068,8.496,4.602,15.248,4.601c6.746,0,15.004-1.531,24.312-4.594
			c16.716-5.5,32.864-14.668,41.139-23.356c4.9-5.145,6.412-11.435,4.371-18.187c-3.284-10.864-15.091-21.198-26.379-26.419
			c-0.755-0.35-1.507-0.675-2.255-0.978c-2.051-0.829-4.066-1.481-5.986-1.915c-9.458-2.144-16.592-1.723-21.305,1.22
			c-1.217,0.76-2.281,1.68-3.172,2.776c-0.084,0.104-0.155,0.217-0.236,0.323c-0.101,0.132-0.198,0.266-0.293,0.4
			s-0.197,0.265-0.287,0.403c-0.844,1.297-1.455,2.738-1.888,4.267c-2.359,8.317,0.752,19.362,3.01,25.626
			c0.951,2.638,1.744,4.42,1.913,4.792c0.007,0.016,0.02,0.043,0.025,0.054l0.458-0.209l0.458-0.21
			c-0.006-0.013-0.049-0.109-0.114-0.258c-0.027-0.064-0.061-0.142-0.099-0.228c-0.342-0.797-1.065-2.548-1.882-4.899
			c-2.128-6.128-4.847-16.274-2.907-23.951c0.398-1.576,0.989-3.051,1.827-4.362c0.089-0.139,0.188-0.27,0.282-0.404
			c0.096-0.138,0.194-0.273,0.295-0.407c0.076-0.1,0.141-0.205,0.22-0.302c0.891-1.097,1.975-2.001,3.228-2.737
			c4.483-2.629,11.258-2.947,20.244-0.913c1.797,0.407,3.679,1.008,5.594,1.768c0.706,0.279,1.415,0.577,2.127,0.899
			c11.155,5.05,22.919,15.244,26.156,25.955c1.958,6.475,0.566,12.261-4.136,17.199c-16.673,17.506-65.427,36.347-79.277,23.311
			c-1.204-1.133-2.361-2.624-3.462-4.395c-0.089-0.144-0.178-0.284-0.267-0.43c-0.083-0.139-0.166-0.278-0.248-0.419
			c-0.72-1.237-1.413-2.598-2.075-4.066c-3.899-8.648-6.727-21.018-7.647-33.668c-0.34-4.665-0.424-9.366-0.202-13.934
			c0.261-5.351,0.936-10.163,1.985-14.347c0.417-1.661,0.896-3.218,1.429-4.674c0.065-0.177,0.133-0.349,0.2-0.523
			c0.065-0.171,0.129-0.346,0.196-0.515c0.681-1.704,1.447-3.246,2.292-4.625c1.295-2.114,2.772-3.845,4.429-5.125
			c8.002-6.183,15.868-12.41,23.58-18.625c2.122-1.71,4.238-3.42,6.335-5.128c0.554-0.451,1.098-0.9,1.65-1.351
			c2.684-2.19,5.343-4.375,7.982-6.554c2.237-1.847,4.458-3.688,6.661-5.524c0.26-0.217,0.518-0.432,0.777-0.649
			c0.275-0.229,0.55-0.459,0.825-0.688c1.61-1.344,3.216-2.687,4.808-4.024c9.468-7.954,18.592-15.754,27.315-23.286
			c1.69-1.459,3.375-2.915,5.034-4.352c8.162-7.073,15.949-13.877,23.291-20.293c38.559-33.696,66.42-58.038,71.814-53.854
			c2.938,2.279-0.995,14.185-11.689,35.386c-13.826,27.41-32.617,40.431-49.196,51.918c-16.114,11.167-30.031,20.81-34.997,40.671
			l0.489,0.122l0.489,0.122c4.873-19.494,18.646-29.037,34.592-40.086c16.678-11.556,35.581-24.654,49.522-52.293
			c11.405-22.609,14.923-33.909,11.408-36.636c-6.056-4.703-31.289,17.356-73.096,53.891c-7.409,6.475-15.268,13.342-23.511,20.483
			C186.061,108.058,185.136,108.856,184.22,109.648z"/>
		<path fill="#FFFFFF" d="M197.149,186.885l0.464-2.964c2.692-17.159,9.632-29.661,21.217-38.219
			c5.19-3.836,10.442-6.333,15.076-8.536c4.226-2.009,8.218-3.907,9.793-6.014c14.722-19.69,24.303-32.95,30.149-41.727
			c0.838-1.258,1.569-2.381,2.207-3.382c-3.455,2.617-7.331,5.693-10.035,7.839c-6.574,5.218-14.025,11.131-21.603,16.595
			l-2.433,1.753l-4.092-5.676l2.433-1.753c7.438-5.362,14.816-11.218,21.327-16.385c14.396-11.425,18.386-14.321,21.526-14.321
			c1.133,0,2.142,0.398,2.917,1.15c2.697,2.622,1.044,6.398-3.682,13.872c-5.418,8.57-15.939,23.258-33.11,46.225
			c-2.612,3.493-7.145,5.648-12.393,8.144c-4.903,2.331-10.458,4.973-15.584,9.144c-8.741,7.113-14.156,17.24-16.554,30.957
			l-0.083,0.471c-0.056,0.312-0.112,0.625-0.164,0.948l-0.464,2.96L197.149,186.885z"/>
		<path fill="#FFFFFF" d="M245.593,107.225l0.294,0.409l0.295,0.409c7.584-5.468,15.072-11.411,21.678-16.654
			c8.156-6.473,18.304-14.524,19.319-13.538c0.241,0.234,0.447,1.871-7.025,13.088c-5.928,8.898-15.621,22.315-30.505,42.223
			c-2.037,2.725-6.191,4.7-11.002,6.987c-4.565,2.17-9.734,4.635-14.708,8.311c-8.879,6.56-17.136,16.989-20.21,36.586l0.498,0.078
			l0.499,0.078c0.079-0.506,0.171-0.989,0.257-1.483c2.966-16.959,9.983-26.714,17.769-33.051
			c5.448-4.433,11.266-7.201,16.329-9.608c4.932-2.345,9.19-4.37,11.376-7.294c37.245-49.814,38.985-55.122,37.426-56.637
			c-1.517-1.473-6.577,2.303-20.648,13.471C260.636,95.835,253.158,101.771,245.593,107.225z"/>
		<g>
			<path fill="#FFFFFF" d="M125.802,144.193l-2.2-1.902l0.636-2.41c1.802-6.829,4.754-13.351,9.293-20.523
				c3.884-6.137,8.41-11.95,13.201-18.105c12.013-15.429,25.622-32.909,32.952-61.107c4.119-15.845,5.575-24.176,6.046-28.477
				c-2.468,2.693-6.697,7.888-13.856,17.906c-5.516,7.72-11.836,16.952-18.528,26.727l-1.038,1.517
				c-15.039,21.969-33.757,49.308-55.396,78.229l-1.067,1.441l-2.459,0.209l-9.676,0.972l5.462-7.287
				C111,102.247,129.858,74.702,145.01,52.568c3.365-4.914,6.469-9.439,9.35-13.616C175.18,8.774,182.163,0,188.312,0
				c0.871,0,1.707,0.179,2.483,0.534c5.352,2.436,6.202,8.799-2.406,41.91c-7.784,29.943-22.005,48.21-34.553,64.327
				c-2.009,2.581-4.079,5.239-6.056,7.878c-6.168,8.231-12.25,17.321-14.966,28.012l-1.725,6.791L125.802,144.193z"/>
			<path fill="#FFFFFF" d="M96.471,134.844l0.272-0.368c21.851-29.205,40.749-56.816,55.934-78.996
				c7.1-10.37,13.806-20.203,19.638-28.365c10.462-14.641,16.845-22.121,19.032-22.121c0.001,0,0.002,0,0.002,0
				c0.697,0,2.34,4.108-5.769,35.303c-7.537,28.996-21.475,46.942-33.772,62.737c-4.788,6.15-9.311,11.965-13.151,18.033
				c-4.407,6.964-7.269,13.276-9.006,19.858l-0.16,0.608l0.644,0.558c0.078,0.065,0.156,0.13,0.23,0.2
				c0.084,0.078,0.164,0.16,0.244,0.242l1.402,1.395l0.435-1.711c2.871-11.3,9.198-20.771,15.607-29.324
				c2.013-2.688,4.112-5.383,6.143-7.991c12.477-16.026,26.618-34.19,34.312-63.788c8.721-33.548,6.915-37.479,4.098-38.761
				c-0.386-0.176-0.806-0.265-1.249-0.265c-4.78,0-13.276,11.197-31.756,37.983c-2.904,4.21-6.033,8.772-9.42,13.719
				c-15.301,22.35-34.344,50.166-56.405,79.609l-1.378,1.838l2.953-0.296L96.471,134.844z"/>
			<path fill="#FFFFFF" d="M170.799,108.65l1.372-2.18c0.137-0.217,0.226-0.347,0.295-0.482
				c13.095-25.929,18.369-39.175,20.473-45.814c-4.69,4.963-12.131,14.201-20.459,27.638c-0.477,0.77-0.952,1.543-1.427,2.329
				l-2.07,3.423l-7.7-4.66c0,0,2.625-4.329,2.905-4.783c3.314-5.39,9.255-14.339,15.1-21.827
				c10.56-13.53,15.17-15.265,18.006-15.265c1.001,0,1.935,0.237,2.776,0.704c4.903,2.716,3.378,10.138-0.42,20.446
				c-3.462,9.396-9.659,22.987-18.417,40.397l-0.356,0.71l-4.672,4.036L170.799,108.65z"/>
			<path fill="#FFFFFF" d="M169.603,85.495c-0.28,0.456-1.352,2.222-1.352,2.222l2.587,1.566l0.522-0.863
				c0.485-0.802,0.971-1.593,1.458-2.378c12.575-20.29,24.55-33.3,27.444-33.52c0.436,0.852,1.645,7.623-22.189,54.813
				c-0.119,0.235-0.269,0.467-0.417,0.7l-0.02,0.031l1.509,1.304l2.28-1.97l0.09-0.179c8.782-17.458,14.987-31.062,18.44-40.435
				c3.794-10.296,4.348-15.518,1.794-16.933c-0.395-0.219-0.843-0.33-1.332-0.33C193.278,49.524,175.753,75.489,169.603,85.495z"/>
			<path fill="#FFFFFF" d="M11.445,323.138c-3.089-7.633-5.603-15.688-7.471-23.943c-1.159-1.977-1.969-4.332-2.352-6.848
				c-0.313-2.068-0.319-4.157-0.02-6.076c-2.336-16.528-2.117-33.162,0.653-49.459c-0.512-2.725-0.254-5.885,0.729-8.941
				c0.547-1.696,1.318-3.331,2.246-4.764c1.433-5.411,3.168-10.751,5.164-15.892c-0.338-3.094,0.464-6.608,2.3-10.002
				c1.35-2.496,3.17-4.656,5.176-6.161c2.857-5.248,6.058-10.271,9.524-14.949c0.592-2.028,1.611-4.076,2.968-5.957
				c2.028-2.809,4.587-4.954,7.271-6.105c3.263-3.358,6.719-6.508,10.289-9.374c1.106-2.314,2.942-4.569,5.241-6.42
				c3.23-2.602,6.991-4.094,10.317-4.094c0.06,0,0.119,0,0.177,0.001c2.608-1.428,5.298-2.756,8.017-3.957
				c1.912-2.498,5.047-4.544,8.757-5.689c1.289-0.398,2.631-0.67,3.99-0.81c0.708-0.073,1.303-0.106,1.872-0.106
				c1.386,0,2.729,0.179,3.993,0.53l0.104,0.027c0.214,0.055,0.442,0.119,0.655,0.193c0.055,0.018,0.109,0.039,0.163,0.059
				c2.376-0.268,4.803-0.403,7.229-0.403c1.325,0,2.649,0.042,3.946,0.124c1.923-0.699,4.116-1.066,6.393-1.066
				c0.326,0,0.657,0.007,0.99,0.022c4.353,0.189,8.276,1.653,10.757,4.014c0.339,0.322,0.659,0.676,0.978,1.082
				c0.195,0.249,0.375,0.495,0.535,0.745c0.183,0.286,0.348,0.586,0.494,0.889c0.084,0.177,0.163,0.356,0.234,0.537
				c2.461,1.717,4.493,3.766,6.051,6.102l2.218,3.327l-7.484,4.989l-2.217-3.325c-0.046-0.068-0.098-0.134-0.146-0.201l-0.165-0.22
				c-0.326-0.442-0.686-0.869-1.078-1.277c-0.257,0.203-0.527,0.399-0.811,0.586c-1.231,0.811-2.677,1.438-4.295,1.863
				c-0.015,0.004-0.309,0.085-0.409,0.108c-0.128,0.03-0.572,0.119-0.572,0.119c-0.285,0.058-0.581,0.111-0.883,0.158
				c-1.035,0.16-2.092,0.241-3.139,0.241c-0.309,0-0.62-0.006-0.935-0.02c-4.808-0.209-8.961-1.912-11.393-4.671
				c-0.594-0.675-1.069-1.395-1.423-2.148c-0.102,0.204-0.212,0.406-0.332,0.606c-1.776,2.995-5.239,5.468-9.502,6.783
				c-1.624,0.501-3.292,0.798-4.958,0.881l-1.702,0.085l-0.132-0.199c-2.252-0.122-4.17-0.638-5.704-1.534l-0.107-0.059
				c-0.221-0.117-0.411-0.226-0.595-0.355c-0.405-0.288-0.779-0.601-1.118-0.936c0.058,0.521,0.07,1.059,0.036,1.609
				c-0.237,3.736-2.581,7.657-6.428,10.756c-3.23,2.603-6.991,4.096-10.318,4.096c-1.677,0-3.213-0.391-4.566-1.163
				c-0.58-0.33-1.084-0.695-1.524-1.104c-0.298,0.268-0.595,0.538-0.89,0.809c0.397,0.544,0.731,1.15,0.998,1.813
				c1.536,3.82,0.433,9.043-2.878,13.631c-3.135,4.345-7.544,7.045-11.507,7.045c-1.193,0-2.33-0.242-3.378-0.72
				c-0.372-0.168-0.71-0.352-1.024-0.556c-0.558,0.863-1.106,1.736-1.645,2.617c0.473,0.337,0.913,0.732,1.312,1.181
				c3.11,3.492,3.082,9.514-0.072,15.342c-2.569,4.747-6.467,7.906-10.428,8.453c-0.425,0.06-0.816,0.089-1.192,0.089
				c-0.452,0-0.896-0.037-1.328-0.107c-0.279,0.802-0.553,1.61-0.819,2.419c0.131,0.035,0.262,0.073,0.391,0.115l0.131,0.043
				l0.231,0.094c5.149,1.935,7.14,8.729,4.732,16.208c-1.77,5.498-5.564,9.612-9.669,10.48c-0.591,0.125-1.136,0.186-1.667,0.186
				c-0.076,0-0.152-0.001-0.228-0.003c-0.016,0.129-0.032,0.258-0.048,0.386c0.291-0.033,0.583-0.05,0.875-0.05
				c0.262,0,0.524,0.014,0.788,0.042c3.01,0.312,5.588,2.364,7.076,5.631c1.189,2.61,1.649,5.916,1.296,9.31
				c-0.791,7.621-5.098,12.945-10.475,12.945c0,0-0.281-0.01-0.438-0.019c0.084,1.387,0.187,2.775,0.308,4.16
				c0.274-0.03,0.557-0.046,0.84-0.046c5.224,0.085,9.606,5.202,10.706,12.445c0.547,3.61,0.153,7.002-1.004,9.679l99.836-29.91
				l0.49-0.023c1.488-0.068,3.027-0.201,4.575-0.395l2.737-0.342l1.55,7.347L16.133,309.648c0.682,2.135,1.409,4.243,2.175,6.309
				l196.564-58.652c-0.673-2.181-1.381-4.375-2.116-6.562l-57.083,17.103l-2.66-7.127l2.559-1.153
				c1.93-0.869,3.83-1.779,5.648-2.705l0.241-0.123l0.338-0.119l47.956-14.367c-1.348-3.617-2.756-7.153-4.2-10.546l-1.541-3.625
				l4.5-2l3.707-1.686l1.603,3.771c4.135,9.718,7.826,20.116,10.968,30.903l1.252,4.289L12.979,326.934L11.445,323.138z
				 M10.75,286.643c-0.059,0.185-0.117,0.397-0.169,0.641c-0.074,0.345-0.127,0.712-0.16,1.088c-0.071,0.853-0.04,1.735,0.095,2.624
				c0.171,1.13,0.501,2.219,0.954,3.148c0.158,0.326,0.327,0.621,0.502,0.88c0.01,0.015,0.02,0.029,0.03,0.044
				c0.295-0.923,0.528-2.42,0.237-4.334C11.941,288.765,11.292,287.417,10.75,286.643z M10.809,254.628
				c-0.494,0.796-1.092,2.184-1.298,4.162c-0.199,1.924,0.092,3.395,0.421,4.299c0.515-0.803,1.111-2.177,1.312-4.119
				C11.448,257.015,11.145,255.528,10.809,254.628z M13.683,226.839c-0.188,0.194-0.395,0.438-0.615,0.738
				c-0.194,0.266-0.379,0.552-0.552,0.854c-0.327,0.567-0.611,1.19-0.847,1.854c-0.062,0.172-0.094,0.258-0.122,0.346
				c-0.283,0.879-0.46,1.765-0.525,2.63c-0.04,0.525-0.021,1.053,0.059,1.613c0.003,0.022,0.005,0.043,0.008,0.064
				c0.7-0.744,1.563-2.054,2.117-3.776C13.808,229.294,13.823,227.784,13.683,226.839z M23.232,198.28
				c-0.22,0.169-0.438,0.358-0.656,0.569c-0.743,0.721-1.425,1.636-1.97,2.644c-0.753,1.393-1.208,2.909-1.25,4.169
				c0.885-0.634,1.95-1.802,2.783-3.34c0.935-1.727,1.222-3.201,1.252-4.161C23.338,198.2,23.286,198.239,23.232,198.28z
				 M40.86,172.469c-0.221,0.118-0.456,0.262-0.697,0.431c-0.913,0.637-1.78,1.506-2.505,2.51c-0.356,0.494-0.678,1.026-0.957,1.583
				c-0.209,0.416-0.382,0.82-0.514,1.202c-0.103,0.297-0.188,0.599-0.252,0.899c-0.021,0.101-0.04,0.196-0.055,0.287
				c0.895-0.491,2.127-1.474,3.192-2.95C40.144,174.944,40.687,173.483,40.86,172.469z M62.658,153.264
				c-1.22,0.27-2.603,0.982-3.851,1.987c-0.956,0.77-1.77,1.67-2.352,2.604c-0.128,0.205-0.247,0.415-0.349,0.623
				c-0.022,0.045-0.043,0.09-0.064,0.134c1-0.22,2.391-0.821,3.858-2.003C61.274,155.503,62.204,154.24,62.658,153.264z
				 M79.278,145.199c0.292,0.05,0.639,0.083,1.053,0.085l0.109-0.005c0.234-0.005,0.385-0.012,0.536-0.022
				c0.158-0.01,0.317-0.027,0.479-0.045c0.75-0.085,1.469-0.234,2.146-0.443c1.52-0.469,2.932-1.254,3.806-2.092
				c-0.355-0.06-0.723-0.089-1.111-0.089c-0.506,0-1.068,0.052-1.671,0.154c-0.539,0.091-1.057,0.213-1.54,0.362
				C81.575,143.568,80.174,144.343,79.278,145.199z M105.073,142.74c1.082,0.604,2.621,0.998,4.219,1.067
				c0.164,0.007,0.331,0.011,0.497,0.011c0.317,0,0.629-0.013,0.935-0.036c0.549-0.041,1.088-0.122,1.601-0.242
				c0.175-0.042,0.349-0.087,0.517-0.138c0.194-0.059,0.376-0.119,0.548-0.187c0.064-0.024,0.125-0.05,0.183-0.075
				c-0.933-0.519-2.403-0.996-4.205-1.074c-0.181-0.008-0.363-0.012-0.542-0.012c-0.864,0-1.694,0.09-2.465,0.269
				c-0.314,0.073-0.604,0.156-0.864,0.248C105.348,142.622,105.208,142.679,105.073,142.74z"/>
			<path fill="#FFFFFF" d="M214.309,230.389l-0.404-0.951l-0.94,0.428l-1.82,0.809l0.39,0.916c1.897,4.46,3.699,9.071,5.397,13.798
				l-51.447,15.413l-0.082,0.042c-1.875,0.955-3.836,1.893-5.827,2.79l0.704,1.885l57.657-17.274
				c1.406,4.054,2.741,8.184,3.987,12.382L18.056,321.458c-1.532-3.894-2.928-7.95-4.159-12.086l114.421-34.279l-0.415-1.966
				c-1.643,0.205-3.274,0.346-4.847,0.417l-0.125,0.006L13.056,306.469c-0.296-1.076-0.584-2.171-0.867-3.301
				c0.551,0.198,1.111,0.301,1.671,0.301c0.231,0,0.462-0.018,0.695-0.053c0.501-0.076,0.99-0.234,1.451-0.471
				c2.997-1.531,4.532-6.275,3.734-11.538c-0.869-5.724-4.122-9.922-7.808-9.981c-0.236,0-0.472,0.017-0.707,0.053
				c-1.016,0.155-1.943,0.637-2.731,1.403c-0.507-4.422-0.828-8.877-0.959-13.312c0.903,0.952,1.993,1.524,3.206,1.65
				c0.076,0.008,0.475,0.025,0.475,0.025c3.758,0,6.937-4.351,7.558-10.345c0.301-2.896-0.073-5.675-1.052-7.824
				c-1.06-2.327-2.727-3.721-4.695-3.925c-0.162-0.017-0.323-0.025-0.484-0.025c-0.353,0-0.708,0.041-1.055,0.119
				c-1.253,0.283-2.429,1.07-3.431,2.253c0.28-3.23,0.661-6.455,1.14-9.644c0.401,0.29,0.837,0.513,1.302,0.662
				c0.46,0.149,0.945,0.225,1.441,0.225c0.322,0,0.667-0.04,1.056-0.122c3.049-0.645,6.063-4.077,7.499-8.539
				c1.895-5.882,0.587-11.309-3.016-12.612l-0.123-0.053l-0.055-0.018c-0.459-0.149-0.944-0.225-1.441-0.225
				c-0.727,0-1.467,0.165-2.202,0.484c0.969-3.281,2.057-6.535,3.247-9.718c0.244,0.207,0.507,0.387,0.789,0.539
				c0.698,0.378,1.476,0.57,2.312,0.57c0.26,0,0.524-0.024,0.789-0.061c3-0.414,6.169-3.084,8.271-6.97
				c2.528-4.673,2.718-9.505,0.474-12.025c-0.38-0.426-0.813-0.773-1.287-1.029c-0.677-0.367-1.429-0.559-2.237-0.57
				c1.831-3.206,3.79-6.31,5.852-9.272c0.358,0.991,0.951,1.805,1.751,2.382c0.231,0.168,0.494,0.317,0.801,0.457
				c0.662,0.301,1.387,0.454,2.155,0.454c2.996,0,6.589-2.297,9.154-5.852c2.697-3.736,3.697-7.996,2.549-10.851
				c-0.372-0.926-0.936-1.667-1.676-2.2c-0.339-0.245-0.704-0.441-1.093-0.587c1.982-1.945,4.054-3.826,6.188-5.618
				c0.164,0.747,0.48,1.421,0.946,1.999c0.341,0.424,0.789,0.791,1.367,1.12c0.902,0.515,1.948,0.775,3.108,0.775
				c2.639,0,5.82-1.295,8.51-3.462c3.175-2.558,5.18-5.805,5.363-8.686c0.09-1.42-0.28-2.69-1.07-3.671
				c-0.07-0.086-0.144-0.172-0.221-0.254c1.626-0.861,3.299-1.691,5-2.475c0.032,0.291,0.091,0.571,0.177,0.851
				c0.312,1.012,0.993,1.898,1.968,2.59c0.139,0.098,0.29,0.161,0.491,0.278c1.21,0.708,2.785,1.069,4.554,1.146l0.181-0.211
				c0.127,0.009,0.254-0.313,0.425-0.313c0.019,0,0.037,0,0.057,0c0.187,0,0.377,0.318,0.568,0.309l0.139,0.265
				c1.431-0.072,2.865-0.299,4.262-0.73c3.538-1.091,6.481-3.131,7.874-5.479c0.878-1.481,1.115-2.995,0.685-4.391
				c-0.052-0.17-0.116-0.332-0.189-0.496c1.483-0.114,2.991-0.17,4.5-0.17c0.34,0,0.679,0.004,1.02,0.01
				c-0.492,0.757-0.765,1.581-0.802,2.445c-0.057,1.303,0.438,2.587,1.428,3.713c1.884,2.137,5.381,3.517,9.354,3.689
				c0.271,0.012,0.542,0.018,0.811,0.018c0.9,0,1.811-0.07,2.705-0.208c0.258-0.04,0.511-0.086,0.764-0.137
				c0,0,0.363-0.072,0.469-0.097c0.081-0.019,0.337-0.091,0.337-0.091c1.315-0.345,2.472-0.843,3.438-1.479
				c0.985-0.649,1.734-1.421,2.219-2.275c1.504,1.085,2.772,2.324,3.778,3.692l0.131,0.177c0.093,0.124,0.186,0.246,0.272,0.375
				l0.559,0.838l2.517-1.677l-0.56-0.839c-1.532-2.299-3.602-4.286-6.158-5.912c-0.082-0.394-0.212-0.779-0.391-1.15
				c-0.096-0.198-0.203-0.395-0.325-0.585c-0.109-0.172-0.235-0.339-0.366-0.507c-0.229-0.292-0.455-0.543-0.692-0.769
				c-1.98-1.885-5.226-3.057-8.904-3.217c-0.29-0.013-0.577-0.02-0.859-0.02c-2.186,0-4.247,0.385-5.98,1.115
				c-1.453-0.109-2.948-0.164-4.448-0.164c-2.598,0-5.196,0.161-7.727,0.479c-0.016-0.006-0.304-0.128-0.304-0.128
				c-0.137-0.062-0.275-0.123-0.421-0.173c-0.138-0.048-0.287-0.087-0.435-0.126l-0.146-0.038c-1.011-0.282-2.093-0.424-3.216-0.424
				c-0.466,0-0.967,0.029-1.581,0.092c-1.173,0.12-2.331,0.355-3.44,0.698c-3.437,1.06-6.299,3.02-7.74,5.281
				c-3.19,1.379-6.344,2.936-9.383,4.633c-0.294-0.035-0.581-0.052-0.867-0.052c-2.638,0-5.819,1.293-8.509,3.46
				c-2.188,1.762-3.854,3.892-4.72,6.024c-3.872,3.065-7.61,6.468-11.119,10.12c-2.362,0.858-4.757,2.799-6.605,5.36
				c-1.286,1.783-2.21,3.709-2.679,5.586c-3.682,4.918-7.061,10.229-10.049,15.789c-1.879,1.253-3.606,3.23-4.887,5.596
				c-1.692,3.127-2.366,6.388-1.873,9.008c-2.154,5.457-4.011,11.15-5.52,16.93c-0.908,1.312-1.661,2.855-2.183,4.474
				c-0.862,2.68-1.079,5.417-0.607,7.705c0.023,0.108,0.048,0.211,0.075,0.314c-2.863,16.471-3.091,33.292-0.68,50.004
				c-0.328,1.745-0.346,3.688-0.051,5.631c0.355,2.334,1.123,4.478,2.224,6.215c1.859,8.335,4.382,16.466,7.499,24.167l0.515,1.275
				l209.395-62.481l-0.421-1.441C222.115,250.456,218.434,240.083,214.309,230.389z M105.872,140.415
				c0.295-0.145,0.607-0.28,0.943-0.398c0.369-0.13,0.772-0.247,1.2-0.345c1.001-0.231,2.067-0.349,3.167-0.349
				c0.224,0,0.451,0.005,0.679,0.015c3.132,0.136,6.079,1.278,7.37,2.886c0.033,0.041,0.066,0.081,0.098,0.125
				c0.078,0.11,0.146,0.223,0.207,0.342c0.02,0.038,0.034,0.077,0.068,0.16c0.029,0.069,0.055,0.138,0.075,0.208
				c0.024,0.083,0.047,0.165,0.059,0.254c0.013,0.091,0.021,0.184,0.018,0.245l-0.02,0.133c-0.072,0.666-0.553,1.208-0.944,1.545
				c-0.497,0.429-1.138,0.799-1.904,1.101c-0.246,0.096-0.504,0.183-0.772,0.264c-0.231,0.07-0.469,0.133-0.714,0.191
				c-0.669,0.157-1.367,0.263-2.078,0.316c-0.381,0.029-0.771,0.044-1.169,0.044c-0.209,0-0.42-0.004-0.632-0.013
				c-2.362-0.103-4.609-0.76-6.165-1.804c-1.133-0.76-1.763-1.651-1.728-2.446C103.668,141.995,104.485,141.094,105.872,140.415z
				 M78.036,144.939c0.104-0.205,0.23-0.408,0.375-0.61c0.174-0.243,0.375-0.483,0.597-0.715c1.249-1.312,3.188-2.44,5.32-3.099
				c0.612-0.188,1.264-0.342,1.937-0.457c0.773-0.131,1.511-0.198,2.193-0.198c0.71,0,1.393,0.07,2.076,0.219
				c0.158,0.035,0.312,0.073,0.458,0.116c0.15,0.045,0.29,0.097,0.458,0.162c0.241,0.094,0.463,0.2,0.661,0.316
				c0.578,0.341,0.941,0.743,1.08,1.192c0.27,0.876-0.321,1.859-0.698,2.367c-1.162,1.57-3.354,2.969-5.862,3.743
				c-0.862,0.266-1.771,0.454-2.704,0.561c-0.214,0.025-0.427,0.047-0.638,0.061c-0.205,0.013-0.407,0.022-0.606,0.025l-0.181,0.008
				c-1.386,0-2.589-0.247-3.542-0.75c-0.44-0.241-1.005-0.654-1.19-1.256C77.62,146.143,77.709,145.577,78.036,144.939z
				 M54.908,158.495c0.103-0.297,0.232-0.604,0.384-0.914c0.146-0.298,0.314-0.598,0.501-0.897c0.764-1.224,1.815-2.393,3.041-3.38
				c1.966-1.584,4.185-2.589,6.13-2.761c0.163-0.014,0.326-0.03,0.482-0.03c0.101,0,0.208,0.004,0.316,0.011
				c0.228,0.015,0.456,0.05,0.677,0.104c0.505,0.125,0.874,0.338,1.128,0.653c0.488,0.607,0.434,1.505,0.301,2.151
				c-0.395,1.934-1.979,4.215-4.136,5.953c-2.17,1.748-4.642,2.792-6.613,2.792c-0.361,0-0.894-0.042-1.381-0.242
				c-0.318-0.131-0.56-0.303-0.739-0.526C54.504,160.792,54.472,159.758,54.908,158.495z M34.703,179.07
				c0.09-0.42,0.209-0.844,0.353-1.26c0.177-0.51,0.403-1.041,0.673-1.579c0.354-0.704,0.762-1.38,1.216-2.008
				c0.929-1.287,2.054-2.409,3.252-3.245c0.418-0.291,0.833-0.539,1.233-0.737c0.335-0.165,0.678-0.299,1.048-0.409
				c0.469-0.139,0.851-0.208,1.169-0.208c0.476,0,0.875,0.114,1.185,0.337c0.343,0.248,0.59,0.647,0.735,1.187
				c0.522,1.949-0.398,5.02-2.291,7.642c-1.953,2.707-4.709,4.598-6.702,4.598c-0.282,0-0.54-0.045-0.792-0.138
				c-0.163-0.06-0.292-0.125-0.394-0.199C34.553,182.447,34.296,180.959,34.703,179.07z M19.539,200.862
				c0.695-1.285,1.575-2.461,2.542-3.4c0.303-0.293,0.612-0.562,0.921-0.798c0.266-0.205,0.532-0.386,0.799-0.543
				c0.776-0.461,1.515-0.704,2.137-0.704c0.328,0,0.622,0.069,0.874,0.205c0.223,0.121,0.419,0.308,0.602,0.573
				c0.957,1.391,0.929,4.802-1.008,8.381c-1.464,2.707-3.654,4.795-5.579,5.321c-0.304,0.083-0.581,0.125-0.822,0.125
				c-0.327,0-0.621-0.069-0.873-0.205c-0.595-0.322-0.891-1.014-1.033-1.537c-0.06-0.222-0.106-0.472-0.142-0.766
				c-0.039-0.331-0.054-0.682-0.044-1.045C17.959,204.706,18.537,202.714,19.539,200.862z M9.515,234.118
				c0.083-1.111,0.309-2.24,0.667-3.356c0.037-0.114,0.077-0.226,0.152-0.432c0.299-0.84,0.662-1.635,1.081-2.362
				c0.229-0.4,0.478-0.783,0.738-1.139c1.204-1.648,2.589-2.632,3.706-2.632c0.179,0,0.352,0.026,0.469,0.062l0.126,0.055
				c1.684,0.654,2.575,4.444,1.161,8.838c-1.022,3.179-3.063,5.826-4.963,6.438c-0.259,0.083-0.499,0.125-0.713,0.125
				c-0.179,0-0.352-0.026-0.512-0.077c-0.712-0.229-1.29-0.992-1.627-2.148c-0.053-0.18-0.1-0.368-0.141-0.563
				c-0.017-0.081-0.023-0.167-0.031-0.254c-0.009-0.093-0.018-0.187-0.031-0.278C9.485,235.612,9.458,234.867,9.515,234.118z
				 M7.999,259.782c0.428-4.123,2.351-6.952,3.942-7.52c0.208-0.074,0.413-0.111,0.608-0.111c0.056,0,0.113,0.003,0.165,0.008
				c1.833,0.191,3.527,3.836,3.05,8.43c-0.466,4.49-2.775,7.62-4.652,7.62c-0.001,0-0.076-0.002-0.076-0.002l0.014,0.006
				C9.217,268.022,7.523,264.376,7.999,259.782z M10.985,298.338c-0.256-0.378-0.499-0.801-0.721-1.259
				c-0.589-1.209-1.015-2.608-1.234-4.046c-0.171-1.131-0.211-2.259-0.119-3.354c0.043-0.51,0.116-1.007,0.217-1.479
				c0.457-2.132,1.435-3.562,2.55-3.732c0.08-0.013,0.161-0.019,0.241-0.019l0.121,0.014c1.744,0.123,4.04,2.985,4.709,7.398
				c0.61,4.021-0.535,7.38-1.994,8.304c-0.227,0.143-0.44,0.229-0.653,0.26c-0.081,0.013-0.162,0.019-0.243,0.019
				C12.939,300.445,11.891,299.677,10.985,298.338z"/>
			<path fill="#FFFFFF" d="M118.365,271.994c-7.825,0-13.831-1.52-17.85-5.302c-1.451-1.366-2.889-3-4.275-5.25l-0.285-0.372
				l-0.287-0.456c-0.76-1.314-1.514-2.766-2.223-4.34c-3.97-8.79-6.864-21.012-7.941-33.553c-0.472-5.505-0.585-10.881-0.337-15.993
				c0.263-5.389,0.944-10.367,2.027-14.801c0.447-1.826,0.948-3.527,1.489-5.058l0.424-1.118c0.74-1.921,1.567-3.671,2.462-5.216
				c1.702-2.94,3.712-5.318,5.975-7.066c8.088-6.249,16.321-12.764,25.167-19.917c0,0,3.333-2.694,4.292-3.473l1.644-1.346
				c3.057-2.495,6.078-4.979,9.074-7.456c2.37-1.96,4.721-3.915,7.053-5.862l1.781-1.487c1.396-1.168,2.786-2.335,4.17-3.5
				c8.748-7.359,17.873-15.15,27.896-23.817l2.723-2.355c8.166-7.075,15.953-13.879,23.293-20.294l0.081-0.07
				c41.88-36.598,62.901-54.968,72.945-54.968c1.728,0,3.292,0.505,4.525,1.462c5.712,4.432,3.141,14.849-10.191,41.281
				c-14.281,28.31-33.464,41.602-50.39,53.329c-15.146,10.495-28.226,19.559-32.693,37.426l-0.97,3.877l-8.727-2.179l0.971-3.88
				c5.287-21.149,19.655-31.107,36.293-42.636c16.047-11.12,34.235-23.722,47.483-49.988c9.551-18.935,11.643-26.56,12.041-29.424
				c-8.889,3.117-37.612,28.218-65.448,52.543c-7.283,6.365-15.008,13.114-23.103,20.129c-1.647,1.427-3.319,2.871-4.997,4.319
				c-9.729,8.399-18.6,15.962-27.122,23.121c-1.58,1.328-3.175,2.662-4.775,3.997l-1.59,1.327c-2.19,1.826-4.397,3.655-6.619,5.49
				c-2.623,2.166-5.264,4.336-7.931,6.513l-1.633,1.336c-2.091,1.702-4.193,3.401-6.303,5.102
				c-8.036,6.477-15.923,12.707-23.441,18.516c-1.224,0.946-2.376,2.294-3.426,4.007c-0.723,1.179-1.384,2.518-1.968,3.978
				l-0.365,0.96c-0.474,1.293-0.909,2.716-1.278,4.192c-0.986,3.932-1.611,8.456-1.853,13.446
				c-0.207,4.242-0.142,8.726,0.194,13.328c0.881,12.105,3.519,23.778,7.238,32.027c0.602,1.335,1.229,2.567,1.868,3.663l0.23,0.389
				l0.222,0.359c0.936,1.503,1.87,2.7,2.776,3.553c2.235,2.104,6.254,3.216,11.625,3.216c18.037-0.001,48.989-13.21,61.334-26.172
				c3.646-3.83,4.684-8.126,3.17-13.138c-2.873-9.502-14.124-18.887-23.754-23.246c-0.65-0.294-1.293-0.563-1.933-0.817
				c-1.75-0.693-3.417-1.221-4.957-1.569c-3.555-0.805-6.742-1.213-9.473-1.213c-3.218,0-5.806,0.561-7.691,1.667
				c-0.823,0.483-1.519,1.064-2.069,1.726l-0.578,0.802c-0.554,0.867-0.992,1.927-1.301,3.144
				c-1.249,4.946-0.235,12.766,2.784,21.456c0.766,2.206,1.434,3.824,1.762,4.592l0.192,0.438l1.637,3.59l-8.18,3.75l-1.66-3.648
				c-0.231-0.508-1.058-2.371-2.044-5.105c-2.292-6.36-5.74-18.435-3.069-27.853c0.56-1.978,1.357-3.767,2.366-5.319
				c0.098-0.149,0.201-0.293,0.305-0.436c0.006-0.008,0.324-0.448,0.438-0.6l0.036-0.051c0.076-0.108,0.169-0.236,0.27-0.36
				c1.149-1.415,2.539-2.634,4.138-3.633c3.351-2.092,7.611-3.152,12.665-3.152c3.406,0,7.262,0.483,11.46,1.435
				c2.071,0.468,4.274,1.171,6.548,2.09c0.801,0.324,1.608,0.673,2.416,1.047c11.363,5.256,24.521,16.158,28.301,28.664
				c2.429,8.037,0.56,15.83-5.265,21.945c-8.67,9.103-25.325,18.221-42.431,23.849c-9.693,3.19-18.222,4.409-25.352,4.409H118.365z"
				/>
			<path fill="#FFFFFF" d="M183.561,108.886c-10.122,8.753-19.335,16.619-28.168,24.049c-1.398,1.177-2.802,2.355-4.216,3.538
				l-1.796,1.5c-2.356,1.967-4.732,3.941-7.126,5.922c-3.027,2.502-6.078,5.012-9.164,7.53l-1.664,1.362
				c-1.048,0.853-2.105,1.707-3.163,2.562l-1.174,0.949c-8.946,7.232-17.267,13.817-25.438,20.13
				c-1.97,1.522-3.739,3.625-5.258,6.25c-0.825,1.423-1.589,3.044-2.273,4.819l-0.404,1.063c-0.513,1.45-0.989,3.069-1.415,4.813
				c-1.047,4.287-1.708,9.119-1.962,14.361c-0.244,5.022-0.132,10.316,0.332,15.733c1.058,12.321,3.884,24.304,7.753,32.872
				c0.672,1.49,1.385,2.89,2.118,4.157l0.248,0.438l0.272,0.452c1.233,2.001,2.515,3.561,3.809,4.78
				c3.438,3.235,8.798,4.828,15.933,4.828h0.006c6.976,0,15.262-1.516,24.627-4.598c16.862-5.547,33.173-14.821,41.554-23.622
				c5.166-5.423,6.758-12.028,4.605-19.148c-3.542-11.717-16.073-22.013-26.92-27.03c-0.771-0.356-1.538-0.683-2.301-0.991
				c-2.143-0.866-4.208-1.523-6.141-1.96c-4.017-0.911-7.681-1.37-10.89-1.37c-4.522,0-8.281,0.916-11.172,2.72
				c-1.329,0.83-2.479,1.838-3.422,2.999c-0.062,0.076-0.118,0.155-0.173,0.235l-0.081,0.111c-0.107,0.142-0.411,0.562-0.411,0.562
				c-0.073,0.099-0.145,0.199-0.212,0.302c-0.853,1.311-1.53,2.839-2.013,4.542c-2.462,8.686,0.842,20.17,3.032,26.243
				c0.985,2.732,1.792,4.535,1.969,4.923l0.418,0.919l2.75-1.261l-0.417-0.916l-0.203-0.462c-0.349-0.812-1.053-2.52-1.856-4.833
				c-1.9-5.471-4.801-15.782-2.882-23.373c0.39-1.545,0.962-2.913,1.699-4.066c0.049-0.077,0.103-0.151,0.157-0.225l0.104-0.148
				c0.087-0.126,0.178-0.25,0.269-0.369l0.201-0.278c0.792-0.975,1.786-1.817,2.955-2.502c2.372-1.392,5.497-2.097,9.288-2.097
				c2.979,0,6.418,0.437,10.224,1.298c1.704,0.386,3.536,0.965,5.445,1.721c0.691,0.274,1.385,0.564,2.083,0.881
				c10.017,4.534,22.302,14.394,25.607,25.328c1.844,6.102,0.532,11.557-3.902,16.212c-13.139,13.795-44.866,27.336-64.053,27.338
				c-6.291,0-10.935-1.368-13.802-4.066c-1.104-1.04-2.213-2.451-3.296-4.192l-0.258-0.417l-0.242-0.409
				c-0.695-1.193-1.377-2.529-2.028-3.973c-3.892-8.631-6.647-20.779-7.56-33.328c-0.347-4.763-0.415-9.41-0.201-13.811
				c0.254-5.231,0.913-9.993,1.957-14.151c0.398-1.591,0.869-3.129,1.397-4.572l0.386-1.011c0.652-1.632,1.397-3.137,2.215-4.472
				c1.251-2.042,2.66-3.675,4.186-4.854c7.571-5.851,15.51-12.121,23.596-18.638c2.124-1.712,4.24-3.423,6.339-5.131l1.65-1.351
				c2.686-2.192,5.346-4.377,7.987-6.558c2.238-1.848,4.46-3.69,6.665-5.527l1.604-1.338c1.61-1.345,3.217-2.688,4.809-4.026
				c8.573-7.201,17.511-14.82,27.325-23.294c1.691-1.46,3.376-2.916,5.036-4.354c8.163-7.073,15.951-13.878,23.294-20.296
				c34.57-30.21,61.875-54.072,69.557-54.072c0.429,0,0.757,0.086,0.977,0.256c0.885,0.686,2.636,5.177-11.972,34.136
				c-13.71,27.181-32.39,40.124-48.872,51.545c-16.28,11.282-30.341,21.025-35.398,41.254l-0.245,0.979l2.934,0.733l0.245-0.978
				c4.781-19.125,18.409-28.568,34.188-39.502c16.776-11.624,35.791-24.799,49.848-52.668
				c11.979-23.748,15.202-34.724,11.125-37.887c-0.718-0.557-1.629-0.84-2.709-0.84c-8.997,0-32.555,20.587-71.586,54.696
				l-0.083,0.072c-7.408,6.474-15.266,13.34-23.507,20.48L183.561,108.886z"/>
			<path fill="#FFFFFF" d="M196.006,187.718l0.62-3.954c2.735-17.43,9.804-30.144,21.611-38.867
				c5.269-3.893,10.567-6.412,15.241-8.635c4.114-1.956,7.995-3.801,9.422-5.71c13.837-18.506,23.124-31.322,29.033-40.066
				c-1.957,1.532-3.817,3.008-5.292,4.178c-6.581,5.223-14.04,11.144-21.638,16.623l-3.244,2.338l-5.261-7.298l3.244-2.337
				c7.422-5.351,14.79-11.199,21.29-16.358c14.846-11.783,18.669-14.538,22.147-14.538c1.378,0,2.661,0.509,3.612,1.433
				c3.475,3.377,0.857,8.181-3.532,15.123c-5.361,8.478-16.207,23.619-33.156,46.29c-2.76,3.691-7.395,5.896-12.764,8.447
				c-4.854,2.309-10.352,4.923-15.381,9.016c-8.546,6.955-13.846,16.884-16.202,30.354l-0.083,0.47
				c-0.056,0.312-0.111,0.618-0.16,0.934l-0.617,3.944L196.006,187.718z"/>
			<path fill="#FFFFFF" d="M245.003,106.407l-0.818,0.589l1.769,2.454l0.818-0.59c7.606-5.484,15.102-11.433,21.715-16.682
				c5.494-4.361,14.251-11.311,17.461-13.017c-0.562,1.383-2.151,4.49-6.633,11.219c-5.918,8.884-15.602,22.286-30.474,42.178
				c-1.888,2.525-5.938,4.45-10.627,6.68c-4.592,2.184-9.796,4.658-14.875,8.411c-11.237,8.302-17.978,20.483-20.607,37.241
				l-0.156,0.997l2.989,0.466l0.156-0.995c0.054-0.34,0.113-0.67,0.172-1l0.083-0.466c2.507-14.335,8.203-24.948,17.413-32.443
				c5.357-4.36,11.078-7.08,16.125-9.48c5.052-2.402,9.415-4.477,11.75-7.6c17.051-22.806,27.947-38.015,33.309-46.496
				c5.087-8.046,5.342-10.175,4.012-11.468c-0.277-0.269-0.768-0.589-1.536-0.589c-2.568,0-7.646,3.837-20.459,14.008
				C260.005,95.049,252.542,100.972,245.003,106.407z"/>
			<path fill="#FFFFFF" d="M189.108,232.334l-1.372-4.98l3.917-0.98l0.424-0.123c1.453-0.422,6.632-1.984,12.066-4.265l0.095-0.04
				c10.086-4.25,12.219-7.279,12.633-8.106c5.434-10.866,9.746-26.313,12.896-37.592c2.879-10.315,3.688-12.889,5.015-14.485
				c10.126-12.187,17.825-21.708,23.681-29.148c-0.961,0.953-1.96,1.947-3,2.987l-2.827,2.827l-6.361-6.361l2.828-2.827
				c26.587-26.588,29.294-26.588,31.683-26.588c1.235,0,2.341,0.436,3.288,1.295c3.071,2.801,1.531,6.462-2.837,13.121
				c-5.994,9.137-18.881,25.582-39.395,50.273c-0.619,1.325-2.29,7.31-3.405,11.307c-3.251,11.644-7.699,27.575-13.519,39.214
				c-2.161,4.321-7.648,8.317-16.775,12.219c-6.158,2.625-12.003,4.367-13.648,4.838l-4.25,1.19L189.108,232.334z"/>
			<path fill="#FFFFFF" d="M285.918,106.15c-0.172-0.156-0.574-0.521-1.283-0.521c-1.262,0-3.887,0-29.819,25.933l-0.713,0.713
				l2.138,2.138l0.713-0.713c15.735-15.735,22.602-21.587,25.546-23.758c-2.554,4.483-11.395,17.457-41.942,54.217
				c-0.975,1.173-1.945,4.442-4.472,13.492c-3.21,11.496-7.606,27.239-13.215,38.457c-1.491,2.981-6.427,6.305-14.272,9.611
				l-0.101,0.042c-5.629,2.363-10.992,3.98-12.501,4.419l-0.48,0.139l-1.001,0.25l0.542,1.968l0.292,0.968l1.413-0.396
				c1.616-0.463,7.352-2.17,13.412-4.753c8.402-3.591,13.584-7.258,15.404-10.896c5.742-11.483,10.181-27.387,13.427-39.014
				c1.588-5.69,3.232-11.574,3.881-12.354C289.774,109.666,287.454,107.551,285.918,106.15z"/>
		</g>
		<path fill="#FFFFFF" d="M190.052,232l-1.081-3.926l2.98-0.744l0.402-0.118c1.471-0.427,6.696-2.003,12.179-4.305l0.103-0.043
			c10.111-4.261,12.553-7.418,13.133-8.579c5.475-10.95,9.803-26.451,12.965-37.77c2.597-9.304,3.559-12.598,4.821-14.116
			c16.139-19.421,26.11-32.061,32.269-40.269c-3.438,3.255-7.725,7.425-13.063,12.762l-2.12,2.121l-4.948-4.947l2.12-2.12
			c26.295-26.295,29-26.295,30.977-26.295c1.475,0,2.333,0.78,2.616,1.036c2.635,2.403,1.075,5.791-3.415,12.477
			c-6.278,9.351-19.389,26.038-38.968,49.603c-0.636,1.19-2.181,6.722-3.546,11.613c-3.24,11.605-7.672,27.479-13.45,39.035
			c-2.05,4.1-7.373,7.942-16.273,11.747c-6.115,2.607-11.902,4.33-13.532,4.796l-3.347,0.935L190.052,232z"/>
		<path fill="#FFFFFF" d="M285.24,106.896c-0.735-0.668-2.268-2.066-29.711,25.378l0.356,0.356l0.356,0.356
			c23.074-23.075,27.468-25.293,28.296-25.317c0.074,0.969-2.306,7.917-43.204,57.134c-0.884,1.063-2.074,5.229-4.275,13.115
			c-3.221,11.536-7.632,27.334-13.285,38.64c-1.943,3.887-8.502,7.443-14.786,10.091c-0.033,0.014-0.066,0.027-0.098,0.041
			c-5.614,2.357-10.973,3.982-12.61,4.458h0c-0.308,0.089-0.498,0.144-0.517,0.148l0.134,0.486l0.134,0.486
			c0.063-0.018,0.22-0.061,0.455-0.129c1.661-0.476,7.334-2.171,13.216-4.679c0.025-0.011,0.051-0.021,0.076-0.032
			c6.319-2.702,12.858-6.34,14.899-10.42c5.697-11.393,10.123-27.245,13.354-38.82c1.84-6.59,3.293-11.795,4.081-12.742
			C288.383,109.762,286.018,107.605,285.24,106.896z"/>
	</g>
</g>
</svg>
